<svg width="339" height="382" viewBox="0 0 339 382" fill="none" xmlns="http://www.w3.org/2000/svg">
<path d="M25.805 373.49C23.845 373.49 22.0367 373.175 20.38 372.545C18.7233 371.915 17.2767 371.028 16.04 369.885C14.8267 368.718 13.8817 367.365 13.205 365.825C12.5283 364.285 12.19 362.593 12.19 360.75C12.19 358.907 12.5283 357.215 13.205 355.675C13.8817 354.135 14.8267 352.793 16.04 351.65C17.2767 350.483 18.7233 349.585 20.38 348.955C22.0367 348.325 23.845 348.01 25.805 348.01C27.7883 348.01 29.5967 348.325 31.23 348.955C32.8867 349.585 34.3217 350.472 35.535 351.615C36.7483 352.758 37.6933 354.112 38.37 355.675C39.07 357.215 39.42 358.907 39.42 360.75C39.42 362.593 39.07 364.297 38.37 365.86C37.6933 367.4 36.7483 368.742 35.535 369.885C34.3217 371.028 32.8867 371.915 31.23 372.545C29.5967 373.175 27.7883 373.49 25.805 373.49ZM33.82 378.915C32.77 378.915 31.79 378.798 30.88 378.565C29.97 378.355 29.0717 378.005 28.185 377.515C27.3217 377.025 26.4117 376.36 25.455 375.52C24.5217 374.68 23.4717 373.642 22.305 372.405L29.55 370.585C30.1333 371.448 30.6583 372.125 31.125 372.615C31.5917 373.105 32.0467 373.455 32.49 373.665C32.9567 373.875 33.4467 373.98 33.96 373.98C35.3133 373.98 36.55 373.408 37.67 372.265L40.68 375.835C38.9767 377.888 36.69 378.915 33.82 378.915ZM25.805 367.75C26.7383 367.75 27.6017 367.587 28.395 367.26C29.2117 366.933 29.9117 366.467 30.495 365.86C31.1017 365.23 31.5683 364.483 31.895 363.62C32.245 362.757 32.42 361.8 32.42 360.75C32.42 359.677 32.245 358.72 31.895 357.88C31.5683 357.017 31.1017 356.282 30.495 355.675C29.9117 355.045 29.2117 354.567 28.395 354.24C27.6017 353.913 26.7383 353.75 25.805 353.75C24.8717 353.75 23.9967 353.913 23.18 354.24C22.3867 354.567 21.6867 355.045 21.08 355.675C20.4967 356.282 20.03 357.017 19.68 357.88C19.3533 358.72 19.19 359.677 19.19 360.75C19.19 361.8 19.3533 362.757 19.68 363.62C20.03 364.483 20.4967 365.23 21.08 365.86C21.6867 366.467 22.3867 366.933 23.18 367.26C23.9967 367.587 24.8717 367.75 25.805 367.75ZM56.1046 373.49C52.4879 373.49 49.6646 372.498 47.6346 370.515C45.6046 368.532 44.5896 365.72 44.5896 362.08V348.5H51.5196V361.87C51.5196 363.97 51.9279 365.475 52.7446 366.385C53.5846 367.295 54.7279 367.75 56.1746 367.75C57.6213 367.75 58.7529 367.295 59.5696 366.385C60.3863 365.475 60.7946 363.97 60.7946 361.87V348.5H67.6196V362.08C67.6196 365.72 66.6046 368.532 64.5746 370.515C62.5446 372.498 59.7213 373.49 56.1046 373.49ZM74.0643 373V348.5H80.9943V373H74.0643ZM99.8896 373.49C97.9529 373.49 96.1563 373.187 94.4996 372.58C92.8663 371.95 91.4429 371.063 90.2296 369.92C89.0396 368.777 88.1063 367.435 87.4296 365.895C86.7529 364.332 86.4146 362.617 86.4146 360.75C86.4146 358.883 86.7529 357.18 87.4296 355.64C88.1063 354.077 89.0396 352.723 90.2296 351.58C91.4429 350.437 92.8663 349.562 94.4996 348.955C96.1563 348.325 97.9529 348.01 99.8896 348.01C102.153 348.01 104.171 348.407 105.945 349.2C107.741 349.993 109.235 351.137 110.425 352.63L106.015 356.62C105.221 355.687 104.346 354.975 103.39 354.485C102.456 353.995 101.406 353.75 100.24 353.75C99.2363 353.75 98.3146 353.913 97.4746 354.24C96.6346 354.567 95.9113 355.045 95.3046 355.675C94.7213 356.282 94.2546 357.017 93.9046 357.88C93.5779 358.743 93.4146 359.7 93.4146 360.75C93.4146 361.8 93.5779 362.757 93.9046 363.62C94.2546 364.483 94.7213 365.23 95.3046 365.86C95.9113 366.467 96.6346 366.933 97.4746 367.26C98.3146 367.587 99.2363 367.75 100.24 367.75C101.406 367.75 102.456 367.505 103.39 367.015C104.346 366.525 105.221 365.813 106.015 364.88L110.425 368.87C109.235 370.34 107.741 371.483 105.945 372.3C104.171 373.093 102.153 373.49 99.8896 373.49ZM121.459 367.575L121.074 359.805L131.609 348.5H139.239L128.739 359.875L124.889 363.9L121.459 367.575ZM115.264 373V348.5H122.124V373H115.264ZM131.714 373L123.734 362.885L128.249 358.055L139.764 373H131.714Z" fill="white"/>
<path d="M143.333 373V348.5H154.533C156.773 348.5 158.698 348.862 160.308 349.585C161.941 350.308 163.201 351.358 164.088 352.735C164.974 354.088 165.418 355.698 165.418 357.565C165.418 359.408 164.974 361.007 164.088 362.36C163.201 363.713 161.941 364.763 160.308 365.51C158.698 366.233 156.773 366.595 154.533 366.595H147.183L150.263 363.585V373H143.333ZM150.263 364.32L147.183 361.135H154.113C155.559 361.135 156.633 360.82 157.333 360.19C158.056 359.56 158.418 358.685 158.418 357.565C158.418 356.422 158.056 355.535 157.333 354.905C156.633 354.275 155.559 353.96 154.113 353.96H147.183L150.263 350.775V364.32ZM166.376 373L177.191 348.5H184.016L194.866 373H187.656L179.186 351.895H181.916L173.446 373H166.376ZM172.291 368.24L174.076 363.13H186.046L187.831 368.24H172.291ZM198.581 373V348.5H209.781C212.021 348.5 213.946 348.862 215.556 349.585C217.189 350.308 218.449 351.358 219.336 352.735C220.223 354.088 220.666 355.698 220.666 357.565C220.666 359.408 220.223 361.007 219.336 362.36C218.449 363.69 217.189 364.717 215.556 365.44C213.946 366.14 212.021 366.49 209.781 366.49H202.431L205.511 363.585V373H198.581ZM213.736 373L207.646 364.075H215.031L221.156 373H213.736ZM205.511 364.32L202.431 361.135H209.361C210.808 361.135 211.881 360.82 212.581 360.19C213.304 359.56 213.666 358.685 213.666 357.565C213.666 356.422 213.304 355.535 212.581 354.905C211.881 354.275 210.808 353.96 209.361 353.96H202.431L205.511 350.775V364.32ZM231.112 373V353.995H223.587V348.5H245.532V353.995H238.042V373H231.112ZM249.864 373V348.5H255.569L269.079 364.81H266.384V348.5H273.174V373H267.469L253.959 356.69H256.654V373H249.864ZM286.182 357.985H297.557V363.165H286.182V357.985ZM286.672 367.645H299.482V373H279.812V348.5H299.027V353.855H286.672V367.645ZM305.078 373V348.5H316.278C318.518 348.5 320.443 348.862 322.053 349.585C323.686 350.308 324.946 351.358 325.833 352.735C326.72 354.088 327.163 355.698 327.163 357.565C327.163 359.408 326.72 361.007 325.833 362.36C324.946 363.69 323.686 364.717 322.053 365.44C320.443 366.14 318.518 366.49 316.278 366.49H308.928L312.008 363.585V373H305.078ZM320.233 373L314.143 364.075H321.528L327.653 373H320.233ZM312.008 364.32L308.928 361.135H315.858C317.305 361.135 318.378 360.82 319.078 360.19C319.801 359.56 320.163 358.685 320.163 357.565C320.163 356.422 319.801 355.535 319.078 354.905C318.378 354.275 317.305 353.96 315.858 353.96H308.928L312.008 350.775V364.32Z" fill="#FFBF00"/>
<path d="M177.921 79.2034C178.672 78.9376 179.398 78.6064 180.09 78.2135C181.057 77.6182 181.894 76.836 182.554 75.9128C183.215 74.9896 183.684 73.9439 183.935 72.837C184.096 72.0775 184.16 71.3006 184.124 70.525C184.043 69.6695 183.875 68.8244 183.623 68.0029C183.155 66.2468 182.646 64.3349 182.097 62.2941L178.395 48.368L173.921 31.4858C173.521 29.9671 173.114 28.428 172.693 26.855C172.36 25.2832 171.589 23.8376 170.47 22.6853C169.313 21.5089 167.83 20.708 166.212 20.3869C164.531 20.0974 162.803 20.254 161.201 20.8412L116.786 32.5435C114.885 33.0501 113.229 34.2186 112.114 35.8385C111.009 37.4336 110.515 39.3738 110.724 41.3032C110.864 42.2649 111.077 43.2146 111.362 44.144C111.612 45.1 111.856 46.0492 112.107 46.9916C112.605 48.881 113.095 50.7545 113.579 52.6123C115.524 60.0703 117.396 67.2096 119.186 74.0438C120.09 77.461 120.957 80.7877 121.789 84.024C122.07 85.6122 122.754 87.1016 123.776 88.3496C124.784 89.5331 126.108 90.4055 127.593 90.865C130.562 91.9091 133.512 90.4921 136.325 89.8819L144.461 87.7733L168.944 81.4544L175.609 79.7662L177.344 79.3458C177.738 79.2509 177.941 79.2238 177.941 79.2238C177.941 79.2238 177.751 79.2983 177.365 79.4068L175.643 79.895L169.005 81.6985L144.597 88.2208L136.461 90.3701L132.149 91.5023C130.565 91.9043 128.901 91.8557 127.344 91.3621C125.786 90.8686 124.398 89.9496 123.335 88.709C122.251 87.4013 121.52 85.8372 121.213 84.1664C120.359 80.9391 119.482 77.6146 118.582 74.193C116.786 67.3655 114.894 60.2058 112.941 52.775C112.453 50.9172 111.96 49.0437 111.463 47.1544C111.21 46.2142 110.959 45.265 110.711 44.3068C110.409 43.3471 110.183 42.3656 110.033 41.371C109.808 39.2865 110.339 37.1906 111.531 35.4656C112.738 33.6931 114.543 32.4149 116.616 31.8655L161.039 20.231C162.731 19.6266 164.551 19.4724 166.32 19.7835C168.049 20.1443 169.629 21.0159 170.856 22.2853C172.039 23.5144 172.854 25.0505 173.209 26.7194C173.615 28.2856 174.022 29.8315 174.416 31.3502C175.995 37.4522 177.467 43.0796 178.809 48.2527C180.151 53.4258 181.358 58.0905 182.423 62.1992C182.952 64.2558 183.444 66.1632 183.901 67.9215C184.155 68.7664 184.327 69.6337 184.416 70.5115C184.446 71.3137 184.368 72.1163 184.186 72.898C183.917 74.0271 183.422 75.09 182.731 76.0223C182.04 76.9546 181.167 77.737 180.165 78.322C179.649 78.6271 179.098 78.8684 178.524 79.0407C178.124 79.1627 177.921 79.2034 177.921 79.2034Z" fill="#E0E0E0"/>
<path d="M160.062 61.8468C159.929 61.9066 159.791 61.9543 159.649 61.9892L158.456 62.3282L154.008 63.5553L139.092 67.5691H138.97L138.916 67.4538L137.885 65.0876L130.664 47.7851L130.773 47.8325L126.786 48.8495L125.722 49.1072L125.349 49.1817C125.464 49.1297 125.585 49.0889 125.708 49.0597L126.759 48.7546L130.732 47.6562H130.813V47.7308L138.129 64.9995L139.132 67.3928L138.963 67.3047L153.933 63.3858L158.401 62.2468L159.608 61.9553C159.756 61.9067 159.908 61.8704 160.062 61.8468Z" fill="#E0E0E0"/>
<path d="M137.261 63.2304C137.261 63.2304 137.295 63.2304 137.363 63.1898L137.668 63.0948L138.868 62.7558L143.356 61.5219L158.869 57.3522L158.767 57.5013C158.537 54.7893 158.286 51.8129 158.022 48.7484C157.893 47.1754 157.757 45.6296 157.635 44.1515L157.818 44.2803L139.512 49.0806L134.088 50.4773L132.624 50.8434L132.244 50.9247C132.156 50.9247 132.115 50.9247 132.108 50.9247L132.237 50.8841L132.61 50.7688L134.068 50.3552L139.492 48.8772L157.798 43.982L157.96 43.9346V44.1041C158.083 45.5821 158.211 47.1279 158.347 48.7009C158.605 51.7655 158.849 54.7215 159.079 57.4607V57.5759H158.964L143.424 61.6439L138.915 62.7965L137.702 63.0948L137.39 63.1694L137.261 63.2304Z" fill="#E0E0E0"/>
<path d="M145.77 71.7399C145.77 71.7399 145.695 71.5636 145.519 71.2721C145.272 70.8669 144.898 70.5547 144.455 70.3839C144.134 70.261 143.788 70.2189 143.448 70.2615C143.107 70.3041 142.782 70.4299 142.502 70.628C142.292 70.8073 142.12 71.0277 141.998 71.2756C141.875 71.5235 141.805 71.7938 141.79 72.0699C141.776 72.346 141.818 72.6221 141.914 72.8814C142.01 73.1407 142.157 73.3777 142.348 73.578C142.539 73.7783 142.768 73.9376 143.022 74.0462C143.277 74.1549 143.55 74.2105 143.827 74.2098C144.103 74.2091 144.377 74.1521 144.63 74.0421C144.884 73.9322 145.113 73.7717 145.302 73.5705C145.601 73.2036 145.77 72.7484 145.783 72.2755C145.783 71.9365 145.743 71.7467 145.783 71.7399C145.87 71.9049 145.915 72.089 145.912 72.2755C145.94 72.7863 145.786 73.2904 145.478 73.6993C145.245 74.0114 144.936 74.2584 144.579 74.4163C144.223 74.5742 143.832 74.6378 143.444 74.601C142.971 74.5611 142.521 74.3756 142.157 74.0701C141.792 73.7646 141.532 73.3539 141.41 72.8944C141.288 72.4348 141.311 71.9489 141.477 71.5031C141.642 71.0573 141.941 70.6735 142.332 70.4042C142.648 70.1859 143.015 70.052 143.397 70.0152C143.779 69.9785 144.164 70.04 144.516 70.194C144.985 70.3998 145.368 70.7615 145.6 71.2178C145.699 71.3752 145.757 71.5545 145.77 71.7399Z" fill="#E0E0E0"/>
<path d="M159.33 68.1529C159.33 68.1529 159.256 67.9698 159.079 67.6851C158.83 67.2815 158.456 66.9699 158.015 66.7969C157.665 66.6629 157.285 66.6281 156.916 66.6965C156.548 66.7648 156.206 66.9335 155.927 67.1841C155.649 67.4346 155.445 67.7572 155.338 68.1163C155.231 68.4754 155.225 68.8571 155.322 69.2191C155.418 69.5812 155.612 69.9097 155.884 70.1682C156.155 70.4268 156.492 70.6055 156.858 70.6846C157.224 70.7636 157.605 70.74 157.959 70.6163C158.313 70.4926 158.625 70.2736 158.862 69.9835C159.161 69.614 159.33 69.1567 159.344 68.6817C159.344 68.3495 159.303 68.1597 159.344 68.1529C159.431 68.3151 159.476 68.4973 159.472 68.6817C159.501 69.1928 159.348 69.6975 159.039 70.1055C158.808 70.4125 158.504 70.6562 158.155 70.8139C157.805 70.9716 157.421 71.0381 157.038 71.0073C156.565 70.967 156.117 70.7812 155.753 70.4755C155.39 70.1698 155.131 69.7591 155.01 69.2999C154.89 68.8408 154.915 68.3556 155.081 67.911C155.248 67.4665 155.548 67.0844 155.94 66.8172C156.257 66.599 156.625 66.4651 157.008 66.4283C157.391 66.3916 157.777 66.4531 158.13 66.607C158.6 66.8109 158.984 67.1731 159.215 67.6308C159.295 67.7929 159.335 67.9721 159.33 68.1529Z" fill="#E0E0E0"/>
<path d="M282.509 322.49C267.288 315.032 261.43 297.662 259.511 281.559C259.193 278.847 258.46 276.135 259.376 273.559C260.291 270.982 263.003 268.955 265.573 269.715C267.702 270.345 268.922 272.521 270.319 274.257C272.196 276.577 274.689 278.321 277.512 279.288C279.35 279.905 281.54 280.122 283.079 278.935C285.194 277.308 284.97 274.081 284.55 271.423L282.17 256.568C281.743 253.91 281.316 251.198 281.757 248.547C282.197 245.896 283.662 243.273 286.082 242.174C288.503 241.076 291.859 242.052 292.788 244.574C293.181 245.618 293.133 246.778 293.377 247.869C293.622 248.961 294.32 250.107 295.411 250.256C296.503 250.405 297.445 249.483 298.123 248.581C300.456 245.476 301.785 241.734 302.998 238.025C304.212 234.316 305.358 230.533 307.399 227.224C309.439 223.916 312.524 221.061 316.301 220.254C320.077 219.448 324.498 221.183 326.037 224.77C327.576 228.357 326.01 232.513 324.084 235.943C321.248 240.989 317.697 245.597 313.541 249.625C312.795 250.351 311.982 251.131 311.812 252.168C311.507 254.026 313.46 255.558 315.297 255.843C317.385 256.202 319.501 255.666 321.616 255.585C323.731 255.504 326.111 256.08 327.196 257.924C328.708 260.473 326.871 263.674 324.918 265.884C321.008 270.301 316.369 274.014 311.202 276.861C309.351 277.871 307.392 278.82 306.022 280.434C304.653 282.047 304.076 284.59 305.344 286.319C306.612 288.048 309.121 288.271 311.114 287.573C313.107 286.875 314.768 285.485 316.606 284.448C320.05 282.502 324.81 282.027 327.637 284.827C329.494 286.671 330.071 289.539 329.671 292.136C329.271 294.733 328.023 297.099 326.647 299.323C321.847 307.1 315.202 313.785 307.175 318.029C299.147 322.273 291.411 324.28 282.516 322.49" fill="#F5F5F5"/>
<path d="M285.099 311.811C286.415 302.673 288.255 293.618 290.611 284.691C291.221 282.314 291.825 279.968 292.421 277.654C293.018 275.349 293.614 273.064 294.333 270.874C295.725 266.65 297.348 262.506 299.194 258.46C300.93 254.588 302.72 251.002 304.415 247.612C306.11 244.222 307.771 241.144 309.398 238.377C311.937 233.999 314.821 229.829 318.022 225.909C319.148 224.553 320.056 223.475 320.687 222.776L321.406 221.983C321.482 221.889 321.569 221.802 321.663 221.726C321.597 221.827 321.525 221.925 321.446 222.017L320.768 222.844C320.172 223.563 319.284 224.627 318.178 226.038C315.043 229.993 312.21 234.179 309.703 238.56C308.103 241.327 306.476 244.439 304.788 247.801C303.1 251.164 301.337 254.792 299.615 258.649C297.788 262.686 296.181 266.819 294.801 271.03C294.089 273.22 293.506 275.484 292.903 277.81C292.299 280.135 291.709 282.468 291.099 284.841C288.749 293.748 286.897 302.779 285.553 311.893" fill="#E0E0E0"/>
<path d="M294.469 270.833C294.288 270.484 294.143 270.119 294.035 269.741C293.784 269.023 293.452 267.979 293.066 266.684C292.279 264.094 291.323 260.48 290.279 256.514C289.235 252.547 288.245 248.933 287.404 246.344C286.998 245.055 286.659 244.018 286.414 243.299C286.266 242.937 286.157 242.56 286.089 242.174C286.297 242.506 286.468 242.861 286.597 243.232C286.896 243.91 287.276 244.954 287.737 246.228C288.645 248.784 289.71 252.371 290.754 256.364C291.798 260.358 292.693 263.863 293.398 266.589C293.723 267.816 294.001 268.853 294.225 269.68C294.35 270.054 294.432 270.441 294.469 270.833Z" fill="#E0E0E0"/>
<path d="M327.684 259.186C327.244 259.351 326.79 259.475 326.328 259.558C325.467 259.769 324.213 260.074 322.674 260.494C319.596 261.314 315.378 262.596 310.788 264.21C306.198 265.823 302.117 267.484 299.195 268.766C297.73 269.389 296.557 269.932 295.744 270.298C295.331 270.515 294.9 270.694 294.455 270.834C294.834 270.571 295.235 270.344 295.655 270.156C296.449 269.728 297.601 269.139 299.045 268.467C301.94 267.111 306.022 265.396 310.619 263.769C314.542 262.368 318.533 261.169 322.579 260.175C324.131 259.796 325.399 259.545 326.281 259.396C326.741 259.282 327.211 259.211 327.684 259.186Z" fill="#E0E0E0"/>
<path d="M285.438 311.12C285.321 311.009 285.221 310.881 285.14 310.741L284.36 309.595C283.682 308.592 282.767 307.12 281.648 305.29C279.397 301.628 276.441 296.476 273.261 290.733C270.081 284.99 267.159 279.817 265.01 276.109L262.386 271.729C262.108 271.254 261.878 270.861 261.708 270.535C261.616 270.399 261.543 270.251 261.491 270.095C261.604 270.212 261.704 270.342 261.789 270.481C262 270.793 262.257 271.159 262.562 271.627C263.24 272.624 264.162 274.095 265.274 275.926C267.525 279.594 270.475 284.74 273.661 290.489C276.848 296.238 279.763 301.405 281.912 305.107L284.496 309.487L285.174 310.687C285.28 310.819 285.369 310.965 285.438 311.12Z" fill="#E0E0E0"/>
<path d="M328.606 289.506C328.48 289.613 328.338 289.699 328.186 289.764L326.932 290.408L322.308 292.733C318.409 294.699 313.046 297.479 307.127 300.544C301.208 303.608 295.818 306.347 291.872 308.232C289.899 309.175 288.299 309.92 287.181 310.415L285.886 310.978C285.739 311.051 285.584 311.106 285.425 311.141C285.553 311.038 285.695 310.951 285.845 310.883L287.099 310.239L291.716 307.914C295.622 305.954 300.985 303.168 306.904 300.103C312.823 297.038 318.213 294.299 322.152 292.414C324.125 291.472 325.732 290.726 326.85 290.231L328.139 289.675C328.286 289.598 328.443 289.541 328.606 289.506Z" fill="#E0E0E0"/>
<path d="M22.0146 77.0813C22.0146 77.0813 14.4549 78.9186 20.4552 95.2856C26.4555 111.652 30.9778 119.944 30.9778 119.944C30.9778 119.944 31.9406 123.694 28.8557 123.884C25.7708 124.073 19.2755 122.216 17.4856 125.735C15.6279 129.389 17.9738 133.335 23.2215 137.179C28.4692 141.023 39.6562 149.871 40.68 150.678C41.7038 151.485 42.5377 153.261 40.463 153.729C38.3883 154.197 23.2757 153.946 23.5876 161.119C23.8995 168.293 40.2664 176.612 42.036 177.554C43.8056 178.497 44.1581 179.337 43.8869 180.341C43.6157 181.344 38.5375 180.781 34.239 180.883C29.9405 180.985 24.9707 181.866 25.4996 185.995C26.0284 190.124 35.1543 199.759 59.508 205.156L70.9527 206.918L78.4107 197.962C93.1436 177.839 93.6453 164.57 91.2927 161.119C88.94 157.668 84.655 160.292 81.3532 163.052C78.0513 165.811 74.6139 169.581 73.746 169.011C72.8782 168.442 72.5866 167.574 73.2918 165.696C73.9969 163.818 80.8243 146.766 76.3224 141.166C71.8205 135.566 60.6335 145.729 58.7622 146.753C56.8909 147.776 56.3621 145.844 56.5858 144.597C56.8096 143.349 59.3792 129.301 60.7895 122.948C62.1997 116.595 61.3454 112.1 57.5418 110.568C53.8739 109.096 50.2127 114.792 47.7719 116.67C45.3311 118.548 43.5818 115.11 43.5818 115.11C43.5818 115.11 41.5071 105.896 35.2153 89.6378C28.9235 73.3794 21.8655 77.1219 21.8655 77.1219" fill="#EBEBEB"/>
<path d="M71.224 209.691C66.6475 197.738 58.8708 176.347 52.0976 158.021C45.3244 139.694 39.1817 123.117 34.6662 111.137C32.4085 105.164 30.5982 100.289 29.3032 96.9599C28.6795 95.292 28.1845 93.9971 27.8523 93.1021C27.6896 92.6682 27.5675 92.3359 27.4794 92.0919C27.3913 91.8478 27.3641 91.7461 27.3641 91.7461C27.3641 91.7461 27.4184 91.8546 27.5133 92.0783L27.9201 93.075L29.4388 96.9057C30.7474 100.235 32.6186 105.042 34.9035 111.049C39.48 123.002 45.6634 139.572 52.4366 157.899C59.2098 176.225 66.9458 197.623 71.4613 209.603" fill="#E0E0E0"/>
<path d="M26.4827 128.704C26.7509 128.786 27.0099 128.895 27.2556 129.03C27.7438 129.253 28.4421 129.599 29.2896 130.033C30.9982 130.908 33.3576 132.182 35.8934 133.626L42.4157 137.355L44.3955 138.474C44.6365 138.594 44.8638 138.739 45.0735 138.908C44.804 138.836 44.5444 138.731 44.3006 138.596C43.8124 138.372 43.1141 138.027 42.2666 137.579C40.558 136.684 38.2392 135.389 35.69 133.938L29.154 130.257L27.1675 129.152C26.9204 129.033 26.6902 128.883 26.4827 128.704Z" fill="#E0E0E0"/>
<path d="M45.9955 138.271C45.9074 138.224 48.3143 133.295 51.3653 127.254C54.4163 121.213 56.9724 116.358 57.0605 116.406C57.1486 116.453 54.7417 121.382 51.6907 127.423C48.6397 133.464 46.104 138.312 45.9955 138.271Z" fill="#E0E0E0"/>
<path d="M55.1282 166.882C55.2822 166.634 55.4667 166.406 55.6774 166.204L57.2639 164.509C58.6199 163.071 60.4437 161.119 62.3896 158.814C64.3354 156.508 66.044 154.434 67.2576 152.895L68.7017 151.071C68.8669 150.838 69.0555 150.622 69.2645 150.427C69.1411 150.684 68.9912 150.927 68.817 151.152C68.5051 151.606 68.0509 152.257 67.461 153.051C66.2948 154.63 64.627 156.773 62.6675 159.051C60.7081 161.329 58.8368 163.295 57.4469 164.685C56.7689 165.363 56.1859 165.933 55.7791 166.306C55.5816 166.519 55.3636 166.712 55.1282 166.882Z" fill="#E0E0E0"/>
<path d="M35.5679 162.116C35.8337 162.118 36.098 162.155 36.3544 162.225L38.463 162.652C40.2325 163.025 42.6801 163.567 45.3786 164.191C48.077 164.815 50.5178 165.391 52.2738 165.832L54.3553 166.367C54.6145 166.42 54.8669 166.502 55.1079 166.611C54.8443 166.61 54.5822 166.573 54.3282 166.503L52.206 166.11C50.4297 165.737 47.9821 165.194 45.2836 164.571C42.5852 163.947 40.1512 163.371 38.3884 162.93L36.3069 162.394C36.0503 162.332 35.8021 162.238 35.5679 162.116Z" fill="#E0E0E0"/>
<path d="M40.4224 188.396C40.758 188.419 41.0912 188.469 41.419 188.545L44.131 189.08C46.4091 189.548 49.555 190.219 53.0128 190.985C56.4706 191.752 59.6165 192.457 61.8743 192.986L64.5863 193.664C64.9195 193.73 65.2462 193.825 65.5626 193.948C65.2238 193.934 64.8875 193.884 64.5592 193.799L61.8472 193.264C59.5691 192.796 56.4232 192.125 52.9654 191.358C49.5076 190.592 46.3345 189.84 44.07 189.331L41.358 188.653C41.0381 188.6 40.7245 188.513 40.4224 188.396Z" fill="#E0E0E0"/>
<path d="M64.9592 193.623C65.1578 193.319 65.3849 193.036 65.6372 192.775L67.5695 190.551C69.2035 188.666 71.4409 186.063 73.841 183.093C76.2411 180.124 78.3429 177.425 79.848 175.445L81.638 173.1C81.8396 172.803 82.0664 172.524 82.316 172.266C82.1531 172.587 81.9625 172.893 81.7464 173.181C81.3532 173.764 80.7769 174.591 80.0447 175.601C78.587 177.635 76.5123 180.347 74.1122 183.324C71.712 186.3 69.434 188.856 67.7525 190.7C66.9118 191.616 66.2202 192.355 65.7185 192.85C65.4849 193.126 65.2311 193.384 64.9592 193.623Z" fill="#E0E0E0"/>
<path d="M315.365 323.731C315.365 323.833 250.053 323.907 169.507 323.907C88.9604 323.907 23.6351 323.833 23.6351 323.731C23.6351 323.629 88.9333 323.555 169.507 323.555C250.08 323.555 315.365 323.636 315.365 323.731Z" fill="#263238"/>
<path d="M283.811 44.4635H264.149C262.858 44.4973 261.634 45.0416 260.744 45.9771C259.854 46.9127 259.372 48.1629 259.403 49.4536V53.0199C259.434 54.3106 258.951 55.5609 258.062 56.4964C257.172 57.4319 255.947 57.9762 254.657 58.01H216.316C215.02 57.978 213.79 57.4343 212.895 56.498C211.999 55.5616 211.511 54.3087 211.536 53.0131V49.4129C211.562 48.1238 211.078 46.8765 210.189 45.9422C209.3 45.0079 208.079 44.4619 206.79 44.4229H199.874H182.66C178.554 44.4228 174.615 46.0532 171.71 48.9556C168.805 51.8581 167.171 55.7951 167.168 59.9016L167.12 308.165C167.12 312.269 168.75 316.205 171.651 319.108C174.553 322.01 178.488 323.642 182.592 323.644L283.845 323.705C285.878 323.706 287.891 323.307 289.77 322.531C291.648 321.754 293.356 320.615 294.794 319.178C296.232 317.741 297.373 316.035 298.151 314.157C298.93 312.279 299.33 310.266 299.33 308.233L299.378 59.9626C299.38 57.9208 298.979 55.8986 298.197 54.0125C297.415 52.1264 296.267 50.4137 294.82 48.973C293.373 47.5324 291.656 46.3923 289.766 45.6183C287.877 44.8444 285.853 44.4519 283.811 44.4635Z" fill="white"/>
<path d="M283.811 44.4636C283.811 44.4636 283.987 44.4636 284.339 44.4636C284.864 44.4628 285.387 44.5013 285.906 44.5789C287.965 44.8384 289.945 45.5316 291.716 46.6129C293.029 47.3831 294.218 48.3478 295.242 49.4741C296.495 50.8257 297.494 52.3921 298.191 54.098C298.995 56.094 299.39 58.2315 299.35 60.3831C299.35 62.6679 299.35 65.1291 299.35 67.6784C299.35 88.3031 299.384 118.142 299.405 155.005C299.425 191.868 299.405 235.782 299.405 284.503V307.704C299.441 309.306 299.242 310.905 298.815 312.45C298.383 313.998 297.715 315.471 296.835 316.816C295.938 318.156 294.854 319.359 293.615 320.389C291.069 322.451 287.942 323.665 284.672 323.861C281.431 323.956 278.204 323.861 274.949 323.901H255.26H214.804H183.663C180.078 324.085 176.532 323.087 173.568 321.061C170.636 319.005 168.485 316.018 167.466 312.586C166.982 310.885 166.765 309.119 166.822 307.352V302.131C166.822 295.188 166.822 288.288 166.822 281.432C166.822 267.736 166.822 254.248 166.822 240.968C166.822 214.438 166.822 188.851 166.822 164.47C166.822 140.089 166.822 116.928 166.822 95.2459C166.822 84.3979 166.822 73.9431 166.822 63.8816C166.822 62.6205 166.822 61.3662 166.822 60.1255C166.822 59.5017 166.876 58.8712 166.91 58.2474C166.944 57.6236 167.066 57.0066 167.222 56.4032C167.781 53.9907 168.898 51.7428 170.483 49.8402C172.022 48.01 173.959 46.5554 176.145 45.5872C178.332 44.6191 180.711 44.1629 183.101 44.2535H196.593H206.261C207.343 44.1957 208.415 44.4934 209.312 45.101C210.185 45.7148 210.846 46.5842 211.204 47.5892C211.501 48.5794 211.607 49.6172 211.516 50.647V52.2064C211.5 52.6996 211.516 53.1932 211.563 53.6844C211.708 54.6525 212.14 55.5548 212.804 56.2744C213.42 56.9974 214.248 57.5094 215.17 57.7389C215.625 57.8479 216.092 57.8958 216.56 57.8813H223.577H243.985H252.982C253.694 57.8813 254.419 57.8813 255.091 57.8813C255.763 57.7971 256.409 57.5656 256.982 57.2033C257.533 56.8539 258.009 56.3982 258.381 55.8626C258.754 55.3271 259.016 54.7225 259.152 54.0845C259.263 53.4628 259.304 52.8305 259.274 52.1996C259.274 51.5759 259.274 50.9589 259.274 50.3487C259.247 49.7463 259.274 49.1427 259.355 48.5452C259.453 47.9643 259.65 47.4047 259.938 46.8909C260.486 45.9186 261.35 45.1627 262.386 44.7484C263.38 44.4351 264.426 44.3245 265.464 44.423C264.474 44.423 263.43 44.3213 262.44 44.7552C261.421 45.1643 260.575 45.9143 260.047 46.8773C259.772 47.3808 259.582 47.9259 259.484 48.491C259.411 49.0801 259.386 49.6742 259.409 50.2673C259.409 50.8775 259.409 51.4945 259.409 52.1183C259.436 52.7604 259.395 53.4034 259.287 54.037C259.148 54.6977 258.879 55.3241 258.494 55.8794C258.11 56.4347 257.619 56.9078 257.05 57.2711C256.451 57.6406 255.777 57.8722 255.077 57.9491C254.358 58.0101 253.667 57.9491 252.948 57.9491H216.56C216.07 57.9683 215.579 57.9204 215.102 57.8067C214.128 57.568 213.255 57.0268 212.607 56.2609C211.941 55.4966 211.514 54.5536 211.38 53.5488C211.338 53.1027 211.322 52.6544 211.332 52.2064V50.6741C211.417 49.6761 211.313 48.6712 211.027 47.7113C210.69 46.7598 210.064 45.9373 209.237 45.3586C208.384 44.7855 207.369 44.5048 206.342 44.5586H183.182C180.837 44.4702 178.503 44.9191 176.359 45.871C174.214 46.8228 172.316 48.2524 170.808 50.0504C169.26 51.9147 168.171 54.1161 167.629 56.4778C167.473 57.0677 167.425 57.6779 167.317 58.2813C167.208 58.8847 167.242 59.5017 167.235 60.1255V63.8816C167.235 73.9431 167.235 84.3979 167.235 95.2459C167.235 116.942 167.235 140.096 167.235 164.47V240.968C167.235 254.23 167.235 267.718 167.235 281.432V307.352C167.177 309.078 167.387 310.802 167.859 312.464C168.862 315.804 170.964 318.707 173.826 320.701C176.715 322.661 180.171 323.614 183.657 323.413H194.111H214.797H255.253H274.97C278.217 323.413 281.472 323.468 284.672 323.373C287.854 323.18 290.897 321.994 293.37 319.983C294.579 318.981 295.636 317.809 296.51 316.505C297.365 315.197 298.014 313.765 298.435 312.26C298.85 310.76 299.044 309.206 299.011 307.65C299.011 306.077 299.011 304.517 299.011 302.951C299.011 296.714 299.011 290.546 299.011 284.449C299.011 235.707 299.059 191.8 299.079 154.951C299.1 118.101 299.147 88.2489 299.167 67.6241C299.167 65.0477 299.167 62.6137 299.167 60.3289C299.212 58.1948 298.826 56.0736 298.035 54.0912C297.348 52.3974 296.363 50.8405 295.126 49.4944C292.707 46.829 289.43 45.0967 285.865 44.5992C285.349 44.5192 284.828 44.4717 284.306 44.4569C283.987 44.484 283.811 44.4636 283.811 44.4636Z" fill="#263238"/>
<path d="M192.138 69.5361C192.138 69.5971 189.576 69.6785 186.423 69.6988C183.27 69.7192 180.707 69.6988 180.707 69.631C180.707 69.5632 183.263 69.4886 186.423 69.4615C189.582 69.4344 192.138 69.4683 192.138 69.5361Z" fill="#263238"/>
<path d="M192.159 72.458C192.159 72.5258 189.603 72.6003 186.45 72.6275C183.297 72.6546 180.734 72.6275 180.734 72.5529C180.734 72.4783 183.291 72.4105 186.443 72.3834C189.596 72.3563 192.159 72.3902 192.159 72.458Z" fill="#263238"/>
<path d="M192.186 75.3808C192.186 75.4486 189.63 75.5232 186.47 75.5503C183.311 75.5774 180.755 75.5503 180.755 75.4757C180.755 75.4012 183.311 75.3334 186.47 75.3062C189.63 75.2791 192.186 75.313 192.186 75.3808Z" fill="#263238"/>
<path d="M229.666 260.963H178.782V311.847H229.666V260.963Z" fill="#F5F5F5"/>
<path d="M223.659 290.076C219.516 284.293 210.722 280.333 203.576 281.398C197.786 282.259 192.66 284.95 189.854 290.7C189.665 291.075 189.571 291.49 189.577 291.91C189.584 292.33 189.691 292.742 189.891 293.111C190.09 293.48 190.376 293.796 190.724 294.031C191.071 294.267 191.471 294.415 191.888 294.463C201.535 295.614 211.287 295.583 220.926 294.368C222.411 294.178 224.181 293.764 224.282 291.927C224.292 291.257 224.072 290.604 223.659 290.076Z" fill="#FFBF00"/>
<g opacity="0.5">
<path d="M223.659 290.075C219.516 284.292 210.722 280.332 203.576 281.397C197.786 282.258 192.66 284.95 189.854 290.699" fill="white"/>
</g>
<path d="M200.783 289.784C200.749 289.784 200.451 289.519 200.057 288.977C199.532 288.26 199.158 287.443 198.959 286.577C198.79 285.715 198.717 284.838 198.742 283.96C198.712 283.598 198.742 283.234 198.83 282.882C198.943 283.228 198.998 283.589 198.993 283.953C199.039 284.806 199.14 285.656 199.298 286.496C199.499 287.321 199.824 288.112 200.261 288.841C200.474 289.132 200.65 289.449 200.783 289.784Z" fill="#F5F5F5"/>
<path d="M206.919 289.506C206.817 289.506 206.966 287.865 206.749 285.872C206.532 283.878 206.071 282.312 206.159 282.278C207.156 284.55 207.421 287.076 206.919 289.506Z" fill="#F5F5F5"/>
<path d="M213.265 288.564C213.163 288.523 213.645 287.431 213.76 285.994C213.875 284.557 213.611 283.397 213.712 283.37C214.053 284.21 214.19 285.118 214.113 286.021C214.035 286.923 213.744 287.795 213.265 288.564Z" fill="#F5F5F5"/>
<path d="M230.255 96.4727H178.782V173.636H230.255V96.4727Z" fill="#F5F5F5"/>
<path d="M230.255 179.453H178.782V256.616H230.255V179.453Z" fill="#F5F5F5"/>
<path d="M286.631 164.883H235.157V236.927H286.631V164.883Z" fill="#F5F5F5"/>
<path d="M286.211 241.992H234.737V311.84H286.211V241.992Z" fill="#F5F5F5"/>
<path d="M286.631 96.4727H235.157V160.205H286.631V96.4727Z" fill="#F5F5F5"/>
<path d="M212.607 119.546V140.936C212.607 141.872 211.855 142.842 210.472 143.574C208.618 144.444 206.586 144.867 204.539 144.808H204.505C199.454 144.808 196.437 142.814 196.437 140.936V119.505C196.437 117.417 197.976 115.24 199.522 113.084C200.559 111.647 200.81 109.579 200.878 108.338C200.878 108.196 200.878 108.067 200.878 107.945H200.735C200.439 107.967 200.146 107.872 199.919 107.679C199.693 107.485 199.553 107.211 199.529 106.914V106.013C199.551 105.715 199.691 105.437 199.917 105.242C200.143 105.046 200.437 104.948 200.735 104.968H208.322C208.548 104.962 208.77 105.017 208.966 105.129C209.162 105.24 209.324 105.402 209.434 105.599C209.497 105.728 209.529 105.869 209.529 106.013V106.914C209.503 107.21 209.362 107.484 209.136 107.676C208.911 107.869 208.618 107.966 208.322 107.945H208.146C208.146 108.067 208.146 108.196 208.146 108.338C208.193 109.559 208.444 111.626 209.502 113.084C211.048 115.24 212.58 117.417 212.587 119.505L212.607 119.546Z" fill="#FAFAFA"/>
<path d="M212.607 119.546V119.329C212.589 119.115 212.56 118.902 212.519 118.691C212.338 117.883 212.036 117.106 211.624 116.386C210.962 115.242 210.231 114.139 209.434 113.084C208.501 111.543 208.031 109.766 208.078 107.965V107.843H208.146C208.413 107.884 208.686 107.824 208.911 107.675C209.137 107.526 209.299 107.298 209.366 107.037C209.366 106.765 209.366 106.433 209.366 106.128C209.383 105.988 209.363 105.846 209.31 105.716C209.257 105.585 209.171 105.471 209.061 105.382C208.83 105.196 208.538 105.102 208.241 105.118H205.183H200.817C200.647 105.103 200.475 105.124 200.314 105.18C200.153 105.236 200.005 105.326 199.881 105.443C199.769 105.561 199.693 105.71 199.664 105.87C199.654 106.056 199.654 106.241 199.664 106.426C199.664 106.616 199.664 106.84 199.664 106.996C199.686 107.161 199.759 107.316 199.874 107.437C200.001 107.564 200.154 107.661 200.323 107.721C200.492 107.781 200.672 107.802 200.851 107.782H201.007V107.952C200.999 108.827 200.903 109.699 200.722 110.555C200.546 111.454 200.198 112.31 199.698 113.078C198.558 114.528 197.616 116.124 196.898 117.824C196.745 118.262 196.645 118.717 196.6 119.18C196.6 119.634 196.6 120.136 196.6 120.617V123.559C196.6 125.548 196.6 127.564 196.6 129.607C196.6 133.201 196.6 136.713 196.6 140.103C196.579 140.51 196.597 140.919 196.654 141.323C196.752 141.702 196.946 142.05 197.217 142.333C197.768 142.92 198.439 143.382 199.183 143.689C200.648 144.277 202.208 144.596 203.786 144.632C205.289 144.71 206.796 144.575 208.261 144.232C209.644 143.958 210.914 143.278 211.909 142.279C212.122 142.034 212.283 141.748 212.383 141.438C212.46 141.123 212.487 140.799 212.465 140.476V138.509C212.465 137.221 212.465 135.987 212.465 134.807C212.465 130.109 212.506 126.305 212.519 123.648C212.519 122.346 212.519 121.329 212.519 120.61C212.519 119.891 212.553 119.552 212.553 119.552C212.588 119.904 212.602 120.257 212.594 120.61C212.594 121.329 212.594 122.346 212.628 123.648C212.628 126.305 212.628 130.109 212.682 134.807C212.682 135.987 212.682 137.221 212.682 138.509V140.476C212.708 140.826 212.68 141.178 212.6 141.52C212.49 141.869 212.31 142.191 212.072 142.469C211.041 143.515 209.717 144.224 208.275 144.503C206.782 144.862 205.245 145.006 203.712 144.93C202.085 144.898 200.477 144.572 198.966 143.967C198.176 143.651 197.464 143.167 196.878 142.55C196.57 142.223 196.349 141.825 196.234 141.391C196.168 140.96 196.145 140.524 196.166 140.089C196.166 136.699 196.166 133.187 196.166 129.594C196.166 127.546 196.166 125.53 196.166 123.546V120.603C196.166 120.108 196.166 119.647 196.166 119.139C196.21 118.649 196.315 118.166 196.478 117.702C197.207 115.973 198.168 114.352 199.332 112.881C200.205 111.386 200.642 109.676 200.593 107.945L200.756 108.108C200.534 108.127 200.31 108.096 200.101 108.017C199.892 107.939 199.704 107.814 199.549 107.654C199.391 107.485 199.289 107.272 199.257 107.043C199.257 106.806 199.257 106.637 199.257 106.433C199.244 106.232 199.244 106.031 199.257 105.83C199.297 105.607 199.404 105.401 199.563 105.24C199.714 105.092 199.895 104.978 200.094 104.906C200.292 104.833 200.504 104.804 200.715 104.82H205.081H208.139C208.496 104.809 208.845 104.927 209.122 105.152C209.258 105.267 209.364 105.412 209.432 105.576C209.5 105.74 209.529 105.917 209.516 106.094C209.516 106.413 209.516 106.698 209.516 107.037C209.441 107.355 209.25 107.635 208.981 107.82C208.711 108.006 208.382 108.084 208.058 108.04L208.173 107.925C208.108 109.685 208.551 111.426 209.448 112.942C210.235 114.013 210.955 115.131 211.604 116.291C212.009 117.025 212.293 117.819 212.445 118.644C212.479 118.857 212.5 119.072 212.506 119.288C212.556 119.367 212.59 119.454 212.607 119.546Z" fill="#263238"/>
<path d="M207.746 107.918C205.492 108.155 203.22 108.155 200.966 107.918C203.22 107.681 205.492 107.681 207.746 107.918Z" fill="#263238"/>
<path d="M211.929 122.4C211.566 122.223 211.164 122.139 210.76 122.157C210.356 122.175 209.963 122.293 209.617 122.502C208.924 122.923 208.176 123.245 207.393 123.458C206.439 123.546 205.482 123.307 204.681 122.78C203.882 122.258 203.041 121.805 202.166 121.424C201.297 121.128 200.363 121.083 199.47 121.293C198.577 121.503 197.761 121.959 197.115 122.61V140.916C197.115 140.916 198.125 144.042 205.217 143.554C212.309 143.066 211.746 139.933 211.746 139.933L211.929 122.4Z" fill="#FFBF00"/>
<path d="M266.732 267.98V289.194C266.732 290.13 265.986 291.086 264.603 291.818C262.764 292.687 260.744 293.107 258.711 293.045C253.687 293.045 250.69 291.059 250.69 289.194V268.007C250.69 268.007 250.69 268.007 250.69 267.959C250.69 265.885 252.223 263.722 253.755 261.586C254.792 260.156 255.036 258.095 255.111 256.888C255.111 256.745 255.111 256.617 255.111 256.501H254.928C254.633 256.522 254.341 256.425 254.116 256.232C253.892 256.039 253.752 255.766 253.728 255.471V254.576C253.75 254.28 253.889 254.005 254.115 253.812C254.34 253.619 254.632 253.523 254.928 253.545H262.467C262.691 253.538 262.912 253.592 263.107 253.702C263.302 253.812 263.463 253.974 263.572 254.169C263.632 254.296 263.662 254.435 263.661 254.576V255.471C263.638 255.765 263.5 256.039 263.276 256.232C263.053 256.425 262.762 256.522 262.467 256.501H262.325C262.325 256.617 262.325 256.745 262.325 256.888C262.372 258.095 262.616 260.156 263.647 261.586C265.186 263.722 266.705 265.885 266.718 267.959C266.739 267.953 266.732 267.966 266.732 267.98Z" fill="#FAFAFA"/>
<path d="M266.732 267.981C266.737 267.908 266.737 267.836 266.732 267.764C266.717 267.55 266.69 267.337 266.651 267.126C266.469 266.325 266.17 265.555 265.762 264.842C265.106 263.702 264.377 262.606 263.579 261.56C262.65 260.03 262.179 258.265 262.223 256.475V256.346H262.339C262.604 256.386 262.875 256.326 263.098 256.176C263.321 256.027 263.481 255.8 263.545 255.539C263.545 255.275 263.545 254.943 263.545 254.638C263.558 254.499 263.537 254.359 263.484 254.231C263.431 254.102 263.347 253.988 263.24 253.899C263.01 253.716 262.721 253.622 262.427 253.634H259.389H255.05C254.881 253.619 254.711 253.641 254.55 253.697C254.39 253.753 254.244 253.842 254.121 253.96C254.007 254.077 253.932 254.226 253.904 254.387C253.894 254.57 253.894 254.753 253.904 254.936C253.904 255.119 253.904 255.343 253.904 255.499C253.926 255.664 253.999 255.819 254.114 255.939C254.239 256.064 254.391 256.16 254.557 256.218C254.724 256.277 254.902 256.298 255.077 256.278H255.24V256.448C255.232 257.316 255.137 258.182 254.955 259.031C254.781 259.923 254.436 260.773 253.938 261.533C252.802 262.983 251.867 264.579 251.158 266.279C251.004 266.717 250.906 267.172 250.867 267.635C250.867 268.082 250.867 268.584 250.867 269.059C250.867 270.021 250.867 270.998 250.867 271.988V277.981C250.867 281.554 250.867 285.046 250.867 288.416C250.846 288.819 250.864 289.223 250.921 289.622C251.021 290.001 251.215 290.348 251.484 290.633C252.032 291.217 252.698 291.679 253.436 291.989C254.885 292.558 256.423 292.865 257.979 292.897C259.473 292.975 260.971 292.84 262.427 292.497C263.801 292.23 265.063 291.554 266.047 290.558C266.26 290.315 266.422 290.031 266.522 289.724C266.595 289.411 266.62 289.089 266.596 288.768C266.596 288.09 266.596 287.453 266.596 286.816C266.596 285.534 266.596 284.314 266.596 283.141C266.596 278.469 266.637 274.686 266.651 272.049C266.651 270.754 266.651 269.743 266.685 269.038C266.718 268.333 266.685 267.987 266.685 267.987C266.725 268.336 266.739 268.688 266.725 269.038C266.725 269.716 266.725 270.754 266.725 272.049C266.725 274.686 266.759 278.469 266.786 283.141C266.786 284.314 266.786 285.534 266.786 286.816C266.786 287.453 266.786 288.104 266.786 288.768C266.813 289.116 266.783 289.467 266.698 289.806C266.589 290.151 266.411 290.472 266.176 290.748C265.154 291.791 263.839 292.5 262.406 292.782C260.923 293.141 259.395 293.285 257.871 293.209C256.262 293.176 254.672 292.852 253.179 292.253C252.43 291.931 251.756 291.458 251.199 290.863C250.895 290.537 250.676 290.141 250.562 289.711C250.496 289.285 250.473 288.853 250.494 288.422V269.045C250.494 268.557 250.494 268.096 250.494 267.594C250.539 267.104 250.644 266.621 250.806 266.157C251.53 264.443 252.484 262.835 253.64 261.377C254.504 259.891 254.938 258.194 254.894 256.475L255.05 256.631C254.83 256.649 254.61 256.618 254.403 256.541C254.197 256.464 254.01 256.342 253.857 256.183C253.698 256.016 253.598 255.802 253.572 255.573C253.572 255.343 253.572 255.173 253.572 254.97C253.559 254.769 253.559 254.567 253.572 254.366C253.615 254.147 253.721 253.944 253.877 253.783C254.028 253.636 254.208 253.523 254.405 253.451C254.603 253.378 254.813 253.348 255.023 253.363H259.362H262.4C262.755 253.351 263.102 253.469 263.376 253.695C263.511 253.809 263.616 253.953 263.685 254.116C263.753 254.279 263.782 254.455 263.769 254.631C263.769 254.95 263.769 255.234 263.769 255.567C263.687 255.879 263.495 256.152 263.229 256.336C262.963 256.52 262.64 256.603 262.318 256.57L262.433 256.455C262.37 258.2 262.808 259.927 263.695 261.431C264.482 262.492 265.198 263.604 265.837 264.76C266.241 265.49 266.525 266.28 266.678 267.099C266.714 267.31 266.732 267.523 266.732 267.737C266.752 267.906 266.746 267.981 266.732 267.981Z" fill="#263238"/>
<path d="M261.905 256.42C259.673 256.655 257.424 256.655 255.192 256.42C257.424 256.185 259.673 256.185 261.905 256.42Z" fill="#263238"/>
<path d="M266.061 270.814C265.701 270.635 265.301 270.55 264.899 270.567C264.498 270.584 264.107 270.701 263.762 270.909C263.076 271.328 262.334 271.65 261.559 271.865C260.604 271.95 259.649 271.711 258.847 271.187C258.053 270.664 257.216 270.21 256.345 269.831C255.483 269.539 254.556 269.495 253.67 269.705C252.784 269.915 251.974 270.369 251.335 271.017V289.228C251.335 289.228 252.331 292.34 259.376 291.852C266.42 291.364 265.871 288.252 265.871 288.252L266.061 270.814Z" fill="#FFBF00"/>
<g opacity="0.5">
<path d="M266.061 270.813C265.701 270.634 265.301 270.549 264.899 270.566C264.498 270.583 264.107 270.7 263.762 270.908C263.076 271.327 262.334 271.649 261.559 271.864C260.604 271.949 259.649 271.71 258.847 271.186C258.053 270.663 257.216 270.209 256.345 269.83C255.483 269.538 254.556 269.494 253.67 269.704C252.784 269.914 251.975 270.368 251.335 271.016V289.227C251.335 289.227 252.331 292.339 259.376 291.851C266.42 291.363 265.871 288.251 265.871 288.251L266.061 270.813Z" fill="white"/>
</g>
<path d="M277.77 190.884C277.538 190.79 277.286 190.755 277.037 190.784C276.788 190.812 276.551 190.903 276.346 191.047C276.244 191.115 276.136 191.196 276.034 191.278C272.592 193.823 268.408 195.164 264.128 195.095C255.796 195.095 248.894 190.423 247.66 184.321V183.169C247.67 183.053 247.657 182.937 247.62 182.827C247.583 182.718 247.523 182.617 247.445 182.531C247.367 182.446 247.272 182.377 247.166 182.331C247.06 182.284 246.945 182.26 246.829 182.26C246.713 182.26 246.599 182.284 246.493 182.331C246.387 182.377 246.292 182.446 246.214 182.531C246.135 182.617 246.076 182.718 246.039 182.827C246.002 182.937 245.988 183.053 245.999 183.169V186.396C246.004 186.473 246.02 186.548 246.046 186.62C245.473 187.886 245.171 189.258 245.158 190.647C245.158 197.692 252.616 203.414 261.844 203.414C269.58 203.414 276.082 199.393 277.98 193.922C278.003 193.898 278.017 193.867 278.021 193.834C278.24 193.397 278.363 192.919 278.38 192.43C278.43 192.141 278.4 191.844 278.292 191.572C278.185 191.299 278.004 191.061 277.77 190.884Z" fill="#FFBF00"/>
<g opacity="0.3">
<path d="M247.036 187.468C247.036 187.468 254.894 205.543 276.19 192.892C276.19 192.892 270.705 198.587 263.552 199.97C257.07 201.211 247.47 197.556 247.036 187.468Z" fill="black"/>
</g>
<path d="M278.353 191.793C278.224 192.104 277.716 192.193 277.221 191.982C276.726 191.772 276.427 191.345 276.543 191.033C276.658 190.721 277.18 190.64 277.675 190.85C278.17 191.06 278.488 191.481 278.353 191.793Z" fill="#263238"/>
<path d="M286.292 75.2588C286.236 75.2686 286.179 75.2686 286.123 75.2588H285.641H283.858L277.872 75.313H277.824V75.2655C277.777 74.9469 277.729 74.5875 277.675 74.2757C277.261 71.3738 276.895 68.7839 276.651 67.0889H276.685H274.651C274.604 67.0948 274.556 67.0948 274.509 67.0889H274.651H275.078H276.671H276.705V67.1228C276.956 68.811 277.343 71.4009 277.777 74.296C277.824 74.635 277.872 74.974 277.919 75.2859L277.865 75.2384H283.852H286.286L286.292 75.2588Z" fill="#263238"/>
<path d="M277.614 73.5632C277.614 73.5632 277.614 73.5632 277.661 73.5632H277.783H278.265H280.068L286.279 73.5022L286.224 73.5496C286.401 72.4987 286.597 71.3665 286.794 70.2003C286.896 69.5969 286.997 69.0002 287.099 68.4375L287.153 68.5053H279.831H276.922C276.888 68.5053 276.875 68.5053 276.875 68.5053H277.078H277.661H279.831L287.153 68.4443H287.221V68.5121L286.923 70.2681C286.719 71.441 286.523 72.5733 286.346 73.6581V73.6988H286.299H280.088H277.634L277.614 73.5632Z" fill="#263238"/>
<path d="M280.014 77.5772C280.014 77.5772 280.014 77.5026 279.967 77.3738C279.915 77.1979 279.805 77.0449 279.655 76.9399C279.547 76.8635 279.422 76.8144 279.291 76.7967C279.16 76.779 279.026 76.7932 278.902 76.8382C278.751 76.895 278.621 76.9965 278.529 77.1291C278.437 77.2618 278.388 77.4193 278.388 77.5806C278.388 77.7419 278.437 77.8994 278.529 78.032C278.621 78.1647 278.751 78.2662 278.902 78.323C279.026 78.3706 279.161 78.3857 279.292 78.3667C279.424 78.3477 279.549 78.2953 279.655 78.2145C279.801 78.1073 279.908 77.9548 279.96 77.7806C280 77.6518 280 77.5772 280.007 77.5772C280.025 77.6461 280.025 77.7184 280.007 77.7874C279.965 77.9823 279.857 78.1569 279.702 78.2823C279.586 78.373 279.449 78.4334 279.303 78.4583C279.158 78.4831 279.008 78.4716 278.868 78.4247C278.693 78.3649 278.54 78.2517 278.432 78.1009C278.324 77.9501 278.266 77.7694 278.266 77.584C278.266 77.3986 278.324 77.2178 278.432 77.067C278.54 76.9163 278.693 76.803 278.868 76.7432C279.008 76.6936 279.159 76.68 279.306 76.7037C279.453 76.7274 279.591 76.7876 279.709 76.8788C279.865 77.0006 279.973 77.1735 280.014 77.367C280.033 77.4357 280.033 77.5085 280.014 77.5772Z" fill="#263238"/>
<path d="M285.438 77.543C285.438 77.543 285.438 77.4684 285.39 77.3464C285.34 77.1698 285.23 77.0163 285.079 76.9125C284.971 76.8345 284.846 76.7844 284.715 76.7666C284.584 76.7489 284.45 76.764 284.326 76.8108C284.214 76.8465 284.111 76.9067 284.025 76.987C283.939 77.0674 283.872 77.1658 283.829 77.2753C283.786 77.3848 283.767 77.5025 283.775 77.6199C283.783 77.7374 283.817 77.8516 283.874 77.9543C283.932 78.0569 284.012 78.1456 284.108 78.2137C284.204 78.2818 284.314 78.3276 284.429 78.348C284.545 78.3683 284.664 78.3626 284.778 78.3313C284.891 78.2999 284.996 78.2437 285.085 78.1668C285.233 78.0558 285.342 77.9018 285.397 77.7261C285.431 77.5972 285.431 77.5227 285.438 77.5227C285.455 77.5916 285.455 77.6639 285.438 77.7328C285.399 77.9275 285.293 78.1025 285.14 78.2278C285.01 78.3299 284.854 78.3938 284.69 78.4124C284.526 78.431 284.361 78.4036 284.211 78.3332C284.062 78.2628 283.935 78.1522 283.845 78.0138C283.755 77.8755 283.706 77.7148 283.702 77.5498C283.702 77.3651 283.758 77.1848 283.864 77.0332C283.969 76.8817 284.119 76.7662 284.292 76.7023C284.431 76.6526 284.581 76.639 284.727 76.6627C284.872 76.6864 285.01 76.7467 285.126 76.8379C285.285 76.9567 285.394 77.1309 285.431 77.326C285.454 77.3962 285.456 77.4715 285.438 77.543Z" fill="#263238"/>
<path d="M287.193 69.885C288.489 69.6053 289.313 68.3282 289.033 67.0325C288.753 65.7368 287.476 64.9132 286.18 65.1928C284.885 65.4725 284.061 66.7496 284.341 68.0453C284.62 69.341 285.898 70.1647 287.193 69.885Z" fill="#FFBF00"/>
<path d="M286.984 66.627V68.4508H286.557V66.966H286.191V66.627H286.984Z" fill="white"/>
<path d="M268.163 288.551H198.078C192.88 288.551 188.667 292.764 188.667 297.961V302.477C188.667 307.674 192.88 311.888 198.078 311.888H268.163C273.36 311.888 277.573 307.674 277.573 302.477V297.961C277.573 292.764 273.36 288.551 268.163 288.551Z" fill="#FFBF00"/>
<g opacity="0.3">
<path d="M268.163 288.549H198.078C192.88 288.549 188.667 292.762 188.667 297.959V302.475C188.667 307.672 192.88 311.886 198.078 311.886H268.163C273.36 311.886 277.573 307.672 277.573 302.475V297.959C277.573 292.762 273.36 288.549 268.163 288.549Z" fill="black"/>
</g>
<path d="M264.711 288.551H194.627C189.429 288.551 185.216 292.764 185.216 297.961V302.477C185.216 307.674 189.429 311.888 194.627 311.888H264.711C269.909 311.888 274.122 307.674 274.122 302.477V297.961C274.122 292.764 269.909 288.551 264.711 288.551Z" fill="#FFBF00"/>
<path d="M226.994 298.937C226.994 300.131 226.127 300.856 224.696 300.856H223.34V302.531H222.553V297.012H224.71C226.127 297.012 226.994 297.737 226.994 298.937ZM226.208 298.937C226.208 298.144 225.679 297.696 224.669 297.696H223.313V300.171H224.669C225.679 300.171 226.208 299.724 226.208 298.937Z" fill="white"/>
<path d="M231.395 301.147H228.486L227.883 302.503H227.069L229.571 296.984H230.35L232.852 302.503H232.025L231.395 301.147ZM231.117 300.517L229.93 297.805L228.737 300.517H231.117Z" fill="white"/>
<path d="M235.429 300.619V302.531H234.649V300.605L232.459 297.012H233.3L235.063 299.92L236.839 297.012H237.619L235.429 300.619Z" fill="white"/>
<path d="M206.234 205.712C206.435 204.412 206.377 203.085 206.063 201.808C205.749 200.53 205.185 199.327 204.404 198.269C203.624 197.21 202.641 196.316 201.513 195.639C200.386 194.961 199.135 194.514 197.834 194.322C197.69 194.265 197.533 194.254 197.382 194.287C197.232 194.321 197.095 194.399 196.989 194.512C196.884 194.624 196.814 194.765 196.789 194.917C196.764 195.07 196.786 195.226 196.85 195.366C197.088 197.901 198.122 200.295 199.806 202.206C201.49 204.116 203.735 205.443 206.22 205.997" fill="#455A64"/>
<path d="M192.26 224.12C194.776 229.307 198.362 232.799 202.871 232.968C203.766 232.968 204.444 232.412 205.298 232.358C205.798 232.472 206.28 232.654 206.729 232.901C206.968 233.002 207.223 233.059 207.482 233.07C212.105 232.819 216.051 229.565 218.709 224.12C222.404 216.493 221.265 208.303 216.16 205.814C215.488 205.479 214.787 205.207 214.065 205.001C213.24 204.771 212.385 204.67 211.529 204.703C209.538 204.829 207.579 205.271 205.725 206.011L205.475 206.106C201.325 204.269 198.017 204.262 194.796 205.814C189.691 208.303 188.559 216.493 192.26 224.12Z" fill="#FFBF00"/>
<path d="M192.349 216.398C192.109 215.92 191.966 215.399 191.928 214.865C191.777 213.576 191.932 212.268 192.382 211.05C192.833 209.831 193.564 208.737 194.518 207.855C194.89 207.471 195.338 207.168 195.834 206.967C195.867 207.014 195.359 207.346 194.688 208.031C193.823 208.926 193.153 209.991 192.72 211.158C192.287 212.325 192.101 213.569 192.172 214.811C192.24 215.794 192.41 216.377 192.349 216.398Z" fill="#FAFAFA"/>
<path d="M193.284 220.019C193.189 220.019 193.027 219.68 192.918 219.219C192.81 218.758 192.803 218.358 192.918 218.331C193.033 218.303 193.176 218.67 193.284 219.137C193.393 219.605 193.379 219.998 193.284 220.019Z" fill="#FAFAFA"/>
<path d="M216.791 193.23C216.791 193.298 215.828 193.664 214.39 194.525C213.552 195.034 212.752 195.602 211.997 196.227C211.094 197.009 210.259 197.866 209.502 198.79C208.739 199.723 208.058 200.722 207.468 201.773C207.004 202.635 206.605 203.53 206.275 204.451C205.712 206.038 205.549 207.068 205.482 207.055C205.477 206.808 205.504 206.562 205.563 206.323C205.6 206.037 205.656 205.753 205.732 205.475C205.815 205.104 205.917 204.737 206.037 204.377C206.336 203.425 206.72 202.501 207.183 201.617C208.324 199.447 209.892 197.531 211.794 195.983C212.563 195.358 213.384 194.8 214.248 194.315C214.58 194.125 214.921 193.953 215.272 193.8C215.529 193.672 215.794 193.559 216.065 193.461C216.297 193.356 216.541 193.279 216.791 193.23Z" fill="#263238"/>
<path d="M279.58 122.277C275.437 116.501 266.644 112.541 259.498 113.606C253.708 114.467 248.582 117.159 245.775 122.908C245.588 123.283 245.495 123.698 245.502 124.117C245.509 124.537 245.617 124.948 245.817 125.317C246.016 125.685 246.301 126.001 246.648 126.237C246.994 126.472 247.393 126.621 247.809 126.671C257.456 127.822 267.208 127.791 276.848 126.576C278.339 126.386 280.102 125.973 280.204 124.135C280.213 123.463 279.993 122.808 279.58 122.277Z" fill="#FFBF00"/>
<path d="M256.704 121.993C256.67 121.993 256.372 121.728 255.979 121.186C255.455 120.468 255.081 119.652 254.88 118.786C254.711 117.924 254.638 117.046 254.664 116.169C254.638 115.805 254.667 115.439 254.752 115.084C254.867 115.429 254.922 115.791 254.914 116.155C254.963 117.011 255.067 117.862 255.226 118.705C255.422 119.532 255.746 120.324 256.189 121.05C256.4 121.341 256.574 121.658 256.704 121.993Z" fill="#263238"/>
<path d="M262.847 121.708C262.739 121.708 262.888 120.067 262.678 118.074C262.467 116.081 262 114.514 262.088 114.48C262.636 115.59 262.954 116.798 263.023 118.033C263.209 119.258 263.149 120.507 262.847 121.708Z" fill="#263238"/>
<path d="M269.166 120.772C269.071 120.731 269.546 119.633 269.661 118.195C269.776 116.758 269.512 115.598 269.613 115.578C269.954 116.418 270.092 117.326 270.014 118.229C269.936 119.131 269.645 120.003 269.166 120.772Z" fill="#263238"/>
<g opacity="0.3">
<path d="M261.769 113.979C261.136 115.14 260.893 116.473 261.076 117.782C261.259 119.091 261.859 120.306 262.786 121.248C263.386 118.784 263.022 116.184 261.769 113.979Z" fill="black"/>
</g>
<g opacity="0.3">
<path d="M255.87 120.976C255.213 119.783 254.82 118.463 254.718 117.105C254.725 116.505 254.638 115.908 254.46 115.335C253.747 116.222 253.396 117.346 253.477 118.481C253.574 119.673 254.133 120.781 255.036 121.566C255.171 121.692 255.334 121.785 255.511 121.837C255.6 121.859 255.694 121.853 255.78 121.82C255.866 121.788 255.94 121.73 255.992 121.654C256.114 121.444 255.992 121.186 255.87 120.976Z" fill="black"/>
</g>
<g opacity="0.3">
<path d="M269.742 116.115C269.719 115.878 269.65 115.648 269.539 115.437C269.482 115.334 269.397 115.25 269.293 115.195C269.19 115.14 269.073 115.116 268.956 115.125C268.637 115.179 268.481 115.539 268.386 115.851C267.853 117.188 267.691 118.645 267.918 120.068C267.993 120.386 268.203 120.746 268.535 120.746C268.868 120.746 268.956 120.474 269.071 120.251C269.721 118.976 269.956 117.53 269.742 116.115Z" fill="black"/>
</g>
<path d="M190.843 159.527V160.165H190.376V159.534C189.875 159.521 189.39 159.356 188.986 159.059L189.237 158.49C189.57 158.734 189.964 158.882 190.376 158.917V157.785C189.745 157.629 189.067 157.426 189.067 156.632C189.067 156.056 189.487 155.547 190.376 155.466V154.788H190.843V155.419C191.25 155.438 191.646 155.557 191.996 155.764L191.759 156.341C191.478 156.176 191.167 156.072 190.843 156.036V157.181C191.474 157.331 192.159 157.534 192.159 158.32C192.159 158.937 191.732 159.432 190.843 159.527ZM190.376 157.093V156.083C189.976 156.144 189.799 156.354 189.799 156.598C189.799 156.842 190.043 156.998 190.376 157.093ZM191.433 158.409C191.433 158.131 191.182 157.995 190.843 157.9V158.904C191.257 158.843 191.433 158.653 191.433 158.409Z" fill="#263238"/>
<path d="M195.555 155.507V159.48H194.816V156.124H193.976V155.507H195.555Z" fill="#263238"/>
<path d="M197.25 159.046C197.241 159.218 197.197 159.386 197.122 159.541L196.83 160.341H196.369L196.6 159.467C196.517 159.433 196.447 159.374 196.4 159.299C196.353 159.223 196.33 159.135 196.335 159.046C196.327 158.981 196.333 158.916 196.353 158.853C196.372 158.791 196.404 158.734 196.448 158.685C196.491 158.636 196.544 158.597 196.604 158.57C196.663 158.543 196.728 158.529 196.793 158.529C196.858 158.529 196.923 158.543 196.982 158.57C197.042 158.597 197.095 158.636 197.138 158.685C197.181 158.734 197.214 158.791 197.233 158.853C197.252 158.916 197.258 158.981 197.25 159.046Z" fill="#263238"/>
<path d="M200.62 158.26C200.62 158.938 200.118 159.541 199.047 159.541C198.514 159.549 197.991 159.388 197.556 159.08L197.868 158.504C198.203 158.762 198.616 158.901 199.04 158.897C199.563 158.897 199.881 158.666 199.881 158.287C199.881 157.907 199.63 157.67 198.81 157.67H197.854L198.057 155.507H200.39V156.124H198.654L198.566 157.046H198.946C200.152 157.046 200.62 157.554 200.62 158.26Z" fill="#263238"/>
<path d="M201.047 157.493C201.047 156.184 201.766 155.459 202.708 155.459C203.651 155.459 204.37 156.198 204.37 157.493C204.37 158.788 203.658 159.527 202.708 159.527C201.759 159.527 201.047 158.802 201.047 157.493ZM203.631 157.493C203.631 156.53 203.251 156.09 202.708 156.09C202.166 156.09 201.793 156.53 201.793 157.493C201.793 158.456 202.166 158.896 202.708 158.896C203.251 158.896 203.631 158.449 203.631 157.493Z" fill="#263238"/>
<path d="M220.804 164.544C220.804 164.646 213.516 164.721 204.532 164.721C195.549 164.721 188.26 164.646 188.26 164.544C188.26 164.443 195.549 164.368 204.532 164.368C213.516 164.368 220.804 164.45 220.804 164.544Z" fill="#263238"/>
<path d="M203.4 167.195C203.4 167.297 200.01 167.371 195.84 167.371C191.671 167.371 188.274 167.297 188.274 167.195C188.274 167.093 191.664 167.019 195.84 167.019C200.017 167.019 203.4 167.1 203.4 167.195Z" fill="#263238"/>
<path d="M247.911 143.269V143.906H247.47V143.276C246.982 143.255 246.511 143.092 246.114 142.808L246.365 142.232C246.695 142.482 247.09 142.633 247.504 142.665V141.526C246.873 141.377 246.195 141.167 246.195 140.381C246.195 139.804 246.616 139.296 247.504 139.208V138.57H247.972V139.201C248.379 139.215 248.776 139.334 249.124 139.547L248.887 140.116C248.607 139.951 248.295 139.847 247.972 139.811V140.957C248.602 141.113 249.287 141.309 249.287 142.103C249.226 142.679 248.826 143.181 247.911 143.269ZM247.443 140.842V139.831C247.036 139.892 246.866 140.096 246.866 140.347C246.866 140.598 247.111 140.747 247.47 140.842H247.443ZM248.5 142.15C248.5 141.872 248.25 141.743 247.911 141.648V142.652C248.324 142.591 248.5 142.381 248.5 142.15Z" fill="#263238"/>
<path d="M254.128 142.604V143.228H251.192V142.733L252.772 141.235C253.158 140.862 253.226 140.631 253.226 140.408C253.226 140.048 252.975 139.838 252.487 139.838C252.311 139.829 252.134 139.861 251.973 139.933C251.812 140.005 251.669 140.114 251.558 140.252L251.043 139.852C251.223 139.629 251.453 139.451 251.715 139.333C251.976 139.216 252.262 139.161 252.548 139.174C253.416 139.174 253.972 139.608 253.972 140.313C253.964 140.56 253.899 140.802 253.781 141.02C253.663 141.238 253.497 141.425 253.294 141.567L252.23 142.584L254.128 142.604Z" fill="#263238"/>
<path d="M255.518 142.793C255.507 142.963 255.463 143.128 255.389 143.281L255.097 144.081H254.636L254.867 143.213C254.784 143.18 254.713 143.122 254.665 143.046C254.616 142.971 254.592 142.883 254.596 142.793C254.596 142.671 254.644 142.554 254.731 142.467C254.817 142.381 254.934 142.332 255.057 142.332C255.179 142.332 255.296 142.381 255.383 142.467C255.469 142.554 255.518 142.671 255.518 142.793Z" fill="#263238"/>
<path d="M258.935 142.605V143.228H255.999V142.733L257.579 141.235C257.965 140.862 258.033 140.632 258.033 140.408C258.033 140.049 257.782 139.838 257.294 139.838C257.118 139.829 256.941 139.862 256.78 139.934C256.619 140.005 256.476 140.115 256.365 140.252L255.85 139.852C256.031 139.628 256.262 139.45 256.525 139.332C256.788 139.214 257.074 139.16 257.362 139.174C258.223 139.174 258.779 139.608 258.779 140.313C258.771 140.56 258.706 140.803 258.588 141.02C258.47 141.238 258.304 141.425 258.101 141.567L257.037 142.584L258.935 142.605Z" fill="#263238"/>
<path d="M262.25 142.008C262.25 142.686 261.749 143.282 260.677 143.282C260.143 143.293 259.62 143.132 259.186 142.821L259.498 142.252C259.832 142.507 260.243 142.643 260.664 142.638C261.193 142.638 261.505 142.408 261.505 142.035C261.505 141.662 261.26 141.411 260.44 141.411H259.477L259.688 139.248H262.02V139.872H260.311L260.223 140.787H260.603C261.783 140.787 262.25 141.302 262.25 142.008Z" fill="#263238"/>
<path d="M277.872 148.293C277.872 148.388 270.583 148.47 261.6 148.47C252.616 148.47 245.328 148.388 245.328 148.293C245.328 148.199 252.623 148.117 261.6 148.117C270.576 148.117 277.872 148.199 277.872 148.293Z" fill="#263238"/>
<path d="M260.481 150.943C260.481 151.038 257.091 151.119 252.914 151.119C248.738 151.119 245.355 151.038 245.355 150.943C245.355 150.848 248.745 150.767 252.914 150.767C257.084 150.767 260.481 150.848 260.481 150.943Z" fill="#263238"/>
<path d="M189.542 242.046V242.683H189.074V242.046C188.573 242.032 188.089 241.867 187.684 241.571L187.942 241.002C188.271 241.25 188.663 241.398 189.074 241.429V240.297C188.443 240.141 187.772 239.938 187.772 239.151C187.772 238.568 188.192 238.066 189.074 237.978V237.334H189.542V237.978C189.948 237.998 190.344 238.117 190.694 238.324L190.464 238.9C190.181 238.736 189.867 238.632 189.542 238.595V239.741C190.172 239.897 190.857 240.093 190.857 240.88C190.857 241.449 190.437 241.951 189.542 242.046ZM189.074 239.612V238.602C188.674 238.67 188.504 238.873 188.504 239.124C188.504 239.375 188.748 239.51 189.074 239.605V239.612ZM190.132 240.927C190.132 240.649 189.881 240.521 189.542 240.419V241.429C189.955 241.368 190.132 241.165 190.132 240.921V240.927Z" fill="#263238"/>
<path d="M192.877 240.012C192.877 238.703 193.596 237.978 194.539 237.978C195.481 237.978 196.2 238.71 196.2 240.012C196.2 241.313 195.488 242.046 194.539 242.046C193.589 242.046 192.877 241.313 192.877 240.012ZM195.461 240.012C195.461 239.056 195.081 238.608 194.539 238.608C193.996 238.608 193.623 239.056 193.623 240.012C193.623 240.968 193.996 241.415 194.539 241.415C195.081 241.415 195.461 240.968 195.461 240.012Z" fill="#263238"/>
<path d="M197.542 241.565C197.531 241.734 197.488 241.9 197.413 242.053L197.122 242.853H196.667L196.891 241.985C196.81 241.95 196.741 241.891 196.694 241.816C196.647 241.741 196.623 241.653 196.627 241.565C196.619 241.5 196.625 241.434 196.644 241.372C196.664 241.31 196.696 241.252 196.739 241.203C196.782 241.154 196.836 241.115 196.895 241.089C196.955 241.062 197.019 241.048 197.084 241.048C197.15 241.048 197.214 241.062 197.274 241.089C197.333 241.115 197.386 241.154 197.43 241.203C197.473 241.252 197.505 241.31 197.525 241.372C197.544 241.434 197.55 241.5 197.542 241.565Z" fill="#263238"/>
<path d="M200.912 240.772C200.912 241.45 200.41 242.054 199.339 242.054C198.805 242.065 198.282 241.903 197.847 241.593L198.159 241.016C198.493 241.274 198.903 241.413 199.325 241.41C199.854 241.41 200.166 241.179 200.166 240.799C200.166 240.42 199.922 240.182 199.101 240.182H198.139L198.349 238.02H200.688V238.657H198.979L198.891 239.579H199.271C200.444 239.559 200.912 240.067 200.912 240.772Z" fill="#263238"/>
<path d="M201.366 240.012C201.366 238.703 202.085 237.978 203.027 237.978C203.969 237.978 204.688 238.71 204.688 240.012C204.688 241.313 203.976 242.046 203.027 242.046C202.078 242.046 201.366 241.313 201.366 240.012ZM203.949 240.012C203.949 239.056 203.569 238.608 203.027 238.608C202.485 238.608 202.112 239.056 202.112 240.012C202.112 240.968 202.485 241.415 203.027 241.415C203.569 241.415 203.922 240.968 203.922 240.012H203.949Z" fill="#263238"/>
<path d="M219.509 247.063C219.509 247.158 212.214 247.239 203.237 247.239C194.261 247.239 186.965 247.158 186.965 247.063C186.965 246.968 194.254 246.887 203.237 246.887C212.221 246.887 219.509 246.961 219.509 247.063Z" fill="#263238"/>
<path d="M202.112 249.715C202.112 249.81 198.722 249.892 194.552 249.892C190.382 249.892 186.992 249.81 186.992 249.715C186.992 249.62 190.382 249.539 194.552 249.539C198.722 249.539 202.112 249.614 202.112 249.715Z" fill="#263238"/>
<path d="M245.267 220.526V221.163H244.805V220.532C244.303 220.519 243.816 220.354 243.409 220.058L243.666 219.488C243.997 219.737 244.393 219.885 244.805 219.915V218.783C244.175 218.627 243.497 218.424 243.497 217.637C243.497 217.054 243.917 216.553 244.805 216.464V215.82H245.267V216.451C245.673 216.471 246.069 216.589 246.419 216.797L246.189 217.373C245.906 217.208 245.592 217.104 245.267 217.068V218.214C245.897 218.37 246.582 218.566 246.582 219.353C246.582 219.936 246.161 220.437 245.267 220.526ZM244.805 218.092V217.081C244.399 217.149 244.229 217.353 244.229 217.603C244.229 217.854 244.473 217.997 244.805 218.092ZM245.856 219.407C245.856 219.129 245.606 219 245.267 218.898V219.909C245.68 219.841 245.856 219.671 245.856 219.407Z" fill="#263238"/>
<path d="M249.979 216.507V220.48H249.24V217.124H248.399V216.507H249.979Z" fill="#263238"/>
<path d="M251.68 220.053C251.67 220.222 251.626 220.388 251.551 220.541L251.26 221.341H250.799L251.023 220.473C250.941 220.438 250.873 220.379 250.826 220.304C250.778 220.229 250.755 220.141 250.758 220.053C250.758 219.931 250.807 219.813 250.893 219.727C250.98 219.64 251.097 219.592 251.219 219.592C251.342 219.592 251.459 219.64 251.545 219.727C251.632 219.813 251.68 219.931 251.68 220.053Z" fill="#263238"/>
<path d="M252.087 218.492C252.087 217.183 252.806 216.458 253.748 216.458C254.691 216.458 255.409 217.19 255.409 218.492C255.409 219.794 254.731 220.526 253.748 220.526C252.765 220.526 252.087 219.801 252.087 218.492ZM254.67 218.492C254.67 217.536 254.291 217.089 253.748 217.089C253.206 217.089 252.833 217.536 252.833 218.492C252.833 219.448 253.206 219.895 253.748 219.895C254.291 219.895 254.67 219.455 254.67 218.492Z" fill="#263238"/>
<path d="M255.911 218.492C255.911 217.183 256.63 216.458 257.572 216.458C258.515 216.458 259.233 217.19 259.233 218.492C259.233 219.794 258.521 220.526 257.572 220.526C256.623 220.526 255.911 219.801 255.911 218.492ZM258.494 218.492C258.494 217.536 258.115 217.089 257.572 217.089C257.03 217.089 256.657 217.536 256.657 218.492C256.657 219.448 257.03 219.895 257.572 219.895C258.115 219.895 258.494 219.455 258.494 218.492Z" fill="#263238"/>
<path d="M275.268 225.55C275.268 225.645 267.973 225.727 258.996 225.727C250.019 225.727 242.724 225.645 242.724 225.55C242.724 225.455 250.012 225.367 258.996 225.367C267.979 225.367 275.268 225.449 275.268 225.55Z" fill="#263238"/>
<path d="M257.837 228.202C257.837 228.297 254.447 228.378 250.277 228.378C246.107 228.378 242.717 228.297 242.717 228.202C242.717 228.107 246.107 228.019 250.277 228.019C254.447 228.019 257.837 228.1 257.837 228.202Z" fill="#263238"/>
<path d="M250.697 73.5825C250.697 73.6775 242.839 73.7588 233.151 73.7588C223.462 73.7588 215.597 73.6775 215.597 73.5825C215.597 73.4876 223.455 73.4062 233.151 73.4062C242.846 73.4062 250.697 73.4808 250.697 73.5825Z" fill="#FFBF00"/>
<path d="M22.1028 284.116C21.0539 284.159 20.0497 284.552 19.2507 285.233C18.4518 285.914 17.9043 286.843 17.6958 287.872C17.2552 289.526 16.9089 291.203 16.6585 292.896C16.6585 292.896 12.6786 296.476 16.6585 297.432C20.6383 298.388 22.0825 293.025 22.0825 293.025L22.6927 284.089L22.1028 284.116Z" fill="#FFBE9D"/>
<path d="M61.9556 215.604C61.9556 215.604 74.3901 173.846 75.658 172.05C77.7462 169.073 97.8761 160.124 97.8761 160.124L103.3 149.113L136.732 143.736L145.024 154.408L168.327 171.534L166.7 230.602L165.832 271.844L170.246 323.332L64.41 323.135L69.1967 312.287L74.2207 218.642L61.9556 215.604Z" fill="#FFBF00"/>
<path d="M76.2954 209.97C76.2646 209.86 76.2509 209.746 76.2547 209.631C76.2547 209.367 76.2547 209.048 76.2005 208.662C76.2005 207.821 76.1259 206.628 76.0988 205.102C76.0446 202.092 76.0446 197.936 76.1734 193.346C76.3022 188.756 76.5463 184.606 76.7768 181.603C76.8853 180.104 76.9938 178.891 77.0819 178.057L77.1836 177.094C77.1939 176.982 77.2143 176.87 77.2446 176.762C77.2639 176.874 77.2639 176.989 77.2446 177.101C77.2446 177.358 77.2446 177.677 77.2039 178.063C77.1565 178.958 77.0887 180.159 77.0073 181.623C76.8446 184.627 76.6412 188.769 76.5124 193.359C76.3836 197.949 76.3429 202.092 76.3361 205.102C76.3361 206.567 76.3361 207.767 76.3361 208.662C76.3361 209.048 76.3361 209.34 76.3361 209.631C76.3388 209.746 76.3251 209.86 76.2954 209.97Z" fill="#263238"/>
<g opacity="0.3">
<path d="M100.269 197.975C100.244 197.507 100.38 197.045 100.656 196.666C101.12 196.098 101.757 195.695 102.469 195.519C103.182 195.343 103.933 195.403 104.609 195.69C106.378 196.538 107.26 198.572 107.619 200.504C108.005 202.619 107.951 204.802 108.351 206.918C108.751 209.033 109.707 211.189 111.572 212.281C113.87 213.637 116.887 213.027 119.301 214.166C122.894 215.854 123.728 220.525 123.911 224.498C124.25 232.017 123.911 239.543 123.599 247.062L121.525 295.078L119.633 319.168L109.897 323.303L97.0151 238.655L100.269 197.975Z" fill="black"/>
</g>
<path d="M103.056 191.115C102.983 191.177 102.897 191.223 102.805 191.25C102.54 191.345 102.256 191.373 101.978 191.332C101.469 191.241 100.993 191.014 100.604 190.673C100.214 190.333 99.9253 189.892 99.7677 189.399C99.5586 188.724 99.4916 188.013 99.5711 187.311C99.6609 186.525 99.7922 185.744 99.9644 184.972C100.29 183.331 100.642 181.541 101.022 179.663C101.781 175.9 102.487 172.497 103.015 170.036L103.693 167.127C103.759 166.768 103.852 166.414 103.971 166.069C103.957 166.435 103.91 166.798 103.829 167.154C103.687 167.907 103.51 168.897 103.293 170.09C102.826 172.558 102.154 175.968 101.395 179.731C101.008 181.609 100.642 183.399 100.31 185.033C99.9779 186.667 99.6321 188.145 100.032 189.325C100.169 189.785 100.426 190.201 100.776 190.53C101.126 190.859 101.557 191.089 102.025 191.196C102.371 191.245 102.723 191.218 103.056 191.115Z" fill="#263238"/>
<path d="M106.487 175.406C106.487 175.44 106.209 175.44 105.748 175.582C105.101 175.796 104.532 176.197 104.114 176.735C103.799 177.116 103.588 177.572 103.5 178.059C103.412 178.546 103.451 179.047 103.612 179.514C103.789 180.095 104.137 180.608 104.61 180.988C105.083 181.368 105.659 181.597 106.263 181.645C106.868 181.693 107.473 181.559 108 181.258C108.527 180.958 108.952 180.507 109.219 179.962C109.453 179.527 109.57 179.038 109.561 178.545C109.551 178.051 109.415 177.567 109.165 177.141C108.839 176.543 108.341 176.056 107.734 175.745C107.3 175.528 107.056 175.487 107.056 175.453C107.056 175.419 107.124 175.453 107.253 175.453C107.445 175.479 107.632 175.531 107.809 175.609C108.477 175.89 109.036 176.38 109.402 177.006C109.661 177.438 109.821 177.922 109.87 178.423C109.923 179.004 109.805 179.589 109.531 180.104C109.24 180.714 108.771 181.22 108.187 181.557C107.602 181.894 106.928 182.046 106.256 181.993C105.583 181.939 104.942 181.683 104.418 181.257C103.894 180.831 103.511 180.257 103.32 179.609C103.13 179.057 103.106 178.46 103.253 177.894C103.409 177.302 103.721 176.763 104.157 176.333C104.592 175.903 105.134 175.597 105.727 175.446C105.915 175.396 106.109 175.374 106.304 175.379C106.366 175.377 106.428 175.386 106.487 175.406Z" fill="#263238"/>
<path d="M117.87 218.574L56.7418 207.509L28.2048 213.774L92.0589 225.266L117.87 218.574Z" fill="#FFBF00"/>
<g opacity="0.6">
<path d="M117.87 218.575L56.7418 207.51L28.2048 213.774L92.0589 225.267L117.87 218.575Z" fill="black"/>
</g>
<path d="M78.7837 245.232C79.6108 233.963 82.7025 205.345 85.0213 194.287C85.6993 190.978 86.5129 187.595 88.4113 184.795C90.3097 181.995 93.659 179.947 96.9947 180.462C99.9779 180.923 102.378 183.344 103.585 186.11C104.764 188.909 105.29 191.939 105.124 194.972C104.548 208.64 103.368 223.949 103.381 236.621" fill="#455A64"/>
<path d="M99.4829 218.397C98.741 218.676 97.9852 218.916 97.2184 219.116C93.5695 220.244 90.0774 221.827 86.8247 223.828C86.1689 224.275 85.49 224.687 84.7907 225.062C84.7907 225.062 84.9466 224.893 85.2721 224.635C85.5975 224.377 86.0789 224.032 86.6891 223.618C88.2912 222.554 89.9757 221.62 91.7266 220.825C93.4782 220.029 95.2923 219.378 97.1506 218.879C97.8625 218.689 98.4456 218.553 98.8456 218.479C99.0536 218.424 99.2679 218.397 99.4829 218.397Z" fill="#263238"/>
<path d="M100.5 205.394C100.5 205.448 99.5847 205.651 98.1202 206.105C94.2975 207.28 90.7269 209.156 87.5908 211.638C86.3908 212.587 85.6924 213.238 85.6518 213.197C85.7784 213.011 85.9263 212.841 86.0925 212.689C86.3908 212.377 86.845 211.95 87.4485 211.448C88.9829 210.136 90.6589 208.999 92.4453 208.058C94.2323 207.119 96.1172 206.38 98.0659 205.855C98.6529 205.69 99.2481 205.557 99.8491 205.455C100.062 205.401 100.281 205.38 100.5 205.394Z" fill="#263238"/>
<path d="M99.1304 194.925C99.1304 194.986 98.4049 195.02 97.2591 195.231C95.7693 195.507 94.325 195.988 92.9674 196.661C91.6132 197.341 90.3585 198.203 89.2384 199.224C88.3773 200.01 87.8824 200.58 87.8824 200.532C87.8824 200.485 87.9637 200.363 88.1604 200.099C88.4392 199.724 88.7451 199.371 89.0757 199.041C91.2699 196.832 94.1278 195.403 97.2117 194.973C97.6744 194.909 98.1411 194.877 98.6083 194.878C98.9473 194.885 99.1236 194.898 99.1304 194.925Z" fill="#263238"/>
<path d="M91.53 227.524C91.527 227.544 91.527 227.565 91.53 227.585V266.705C91.53 268.421 90.174 270.19 87.6044 271.533C85.0348 272.875 81.3668 273.79 76.7564 273.797H76.6954C67.4407 273.797 61.9082 270.143 61.9082 266.705V227.585C61.9099 227.564 61.9099 227.544 61.9082 227.524C61.9082 227.524 61.9082 227.476 61.9082 227.449C61.9082 223.625 64.7355 219.632 67.5695 215.686C69.4679 213.055 69.9222 209.258 70.0103 207.035C70.0103 206.763 70.0103 206.526 70.0103 206.309H69.7527C69.4833 206.332 69.2119 206.301 68.9546 206.218C68.6972 206.135 68.459 206.002 68.2538 205.826C68.0486 205.65 67.8806 205.434 67.7596 205.193C67.6387 204.951 67.5671 204.687 67.5492 204.417V202.763C67.5654 202.492 67.6357 202.227 67.7559 201.984C67.8761 201.74 68.0439 201.524 68.2492 201.346C68.4546 201.168 68.6934 201.034 68.9516 200.95C69.2098 200.866 69.4822 200.835 69.7527 200.858H83.6517C84.0647 200.845 84.4734 200.946 84.8324 201.15C85.1914 201.355 85.4868 201.655 85.6857 202.017C85.7967 202.25 85.8546 202.505 85.8552 202.763V204.417C85.8373 204.688 85.7655 204.952 85.6441 205.194C85.5227 205.437 85.3541 205.652 85.1482 205.828C84.9422 206.005 84.7032 206.138 84.445 206.221C84.1869 206.303 83.9148 206.333 83.6449 206.309H83.394C83.394 206.526 83.394 206.763 83.394 207.035C83.4822 209.258 83.9364 213.055 85.8416 215.686C88.6689 219.632 91.4826 223.625 91.5029 227.449C91.53 227.476 91.53 227.51 91.53 227.524Z" fill="#FAFAFA"/>
<path d="M91.53 227.523C91.539 227.39 91.539 227.256 91.53 227.123C91.5052 226.732 91.4577 226.343 91.3876 225.957C91.0621 224.469 90.516 223.039 89.7672 221.713C88.5636 219.607 87.2275 217.58 85.767 215.645C84.9037 214.367 84.2874 212.939 83.9499 211.434C83.5479 209.757 83.3386 208.04 83.3262 206.315V206.193H83.4482C83.9622 206.228 84.4747 206.107 84.9195 205.847C85.1431 205.718 85.3356 205.541 85.4832 205.329C85.6308 205.117 85.73 204.875 85.7738 204.62C85.7738 204.098 85.7738 203.508 85.7738 202.946C85.7972 202.674 85.7546 202.401 85.6495 202.149C85.5444 201.898 85.38 201.676 85.1703 201.501C84.7273 201.142 84.1672 200.959 83.5974 200.986H77.97H69.9628C69.6341 200.957 69.303 200.999 68.9918 201.109C68.6807 201.219 68.3968 201.394 68.1593 201.623C67.9329 201.859 67.7818 202.156 67.7254 202.478C67.7078 202.823 67.7078 203.17 67.7254 203.515C67.7254 203.861 67.7254 204.254 67.7254 204.573C67.7732 204.902 67.9198 205.21 68.1458 205.454C68.388 205.701 68.6825 205.89 69.0076 206.007C69.3327 206.124 69.68 206.167 70.0238 206.132H70.1865V206.302C70.1754 207.897 70.0028 209.487 69.6713 211.048C69.3423 212.671 68.7073 214.218 67.8 215.604C66.844 216.96 65.8609 218.316 64.9524 219.753C64.0122 221.181 63.2387 222.712 62.6472 224.316C62.3596 225.131 62.1751 225.978 62.098 226.838C62.0505 227.686 62.098 228.594 62.098 229.476V245.951C62.098 252.534 62.098 258.969 62.098 265.179C62.0612 265.938 62.0976 266.699 62.2065 267.45C62.3971 268.166 62.7629 268.823 63.2709 269.362C64.2931 270.449 65.534 271.306 66.9118 271.878C68.2644 272.444 69.6736 272.865 71.1154 273.132C72.5275 273.399 73.9575 273.56 75.3936 273.613C78.159 273.754 80.9304 273.501 83.6245 272.861C84.9113 272.547 86.1596 272.092 87.3467 271.505C88.4961 270.957 89.5242 270.185 90.3706 269.234C90.7661 268.767 91.0677 268.228 91.2588 267.647C91.4011 267.06 91.4515 266.453 91.4079 265.85V262.243C91.4079 259.891 91.4079 257.626 91.4079 255.463C91.4079 246.839 91.4486 239.869 91.4622 235.015C91.4757 230.16 91.5232 227.516 91.5232 227.516C91.5438 227.681 91.5438 227.847 91.5232 228.011C91.5232 228.35 91.5232 228.832 91.5232 229.455C91.5232 230.737 91.5232 232.608 91.5232 235.015C91.5232 239.856 91.5232 246.839 91.5774 255.463C91.5774 257.619 91.5774 259.884 91.5774 262.243V266.772C91.5687 267.096 91.5186 267.417 91.4283 267.728C91.2285 268.348 90.9082 268.922 90.4859 269.417C89.6188 270.404 88.56 271.204 87.3738 271.769C86.168 272.357 84.9017 272.812 83.5974 273.125C80.9083 273.769 78.1424 274.034 75.38 273.912C73.928 273.861 72.482 273.7 71.0544 273.43C69.5874 273.157 68.1534 272.73 66.7762 272.156C65.3491 271.581 64.0632 270.704 63.0065 269.586C62.4598 269.015 62.0657 268.316 61.8607 267.552C61.7398 266.774 61.6989 265.986 61.7387 265.2V229.489C61.7387 228.594 61.7387 227.726 61.7387 226.825C61.8208 225.937 62.0121 225.062 62.3082 224.221C62.9088 222.59 63.696 221.034 64.6541 219.584C65.5626 218.14 66.5592 216.777 67.5152 215.428C68.3921 214.072 69.0062 212.563 69.3255 210.98C69.6524 209.446 69.8272 207.883 69.8475 206.315L70.0035 206.471C69.6162 206.506 69.2261 206.453 68.8615 206.319C68.4968 206.184 68.1666 205.97 67.8949 205.691C67.6242 205.401 67.4511 205.034 67.4 204.641C67.4 204.241 67.4 203.908 67.4 203.542C67.3801 203.179 67.3801 202.814 67.4 202.451C67.4703 202.07 67.652 201.718 67.922 201.44C68.1898 201.181 68.5097 200.982 68.8603 200.856C69.211 200.729 69.5845 200.679 69.956 200.708H77.9632H83.5567C84.187 200.685 84.8041 200.892 85.2924 201.291C85.5288 201.49 85.7138 201.743 85.8318 202.029C85.9498 202.314 85.9973 202.624 85.9704 202.932C85.9704 203.515 85.9704 204.051 85.9704 204.641C85.923 204.93 85.812 205.205 85.6456 205.447C85.4791 205.688 85.2612 205.89 85.0076 206.037C84.5234 206.318 83.9656 206.446 83.4075 206.403L83.516 206.295C83.577 209.868 84.2686 213.177 85.8822 215.522C87.3331 217.468 88.6557 219.507 89.8418 221.624C90.5867 222.964 91.1174 224.412 91.4147 225.916C91.4801 226.318 91.5186 226.723 91.53 227.13C91.5535 227.26 91.5535 227.393 91.53 227.523Z" fill="#263238"/>
<path d="M82.6347 206.213C80.5787 206.392 78.5141 206.451 76.4513 206.389C74.3863 206.451 72.3194 206.392 70.2612 206.213C72.3196 206.039 74.3863 205.98 76.4513 206.037C78.5141 205.98 80.5785 206.038 82.6347 206.213Z" fill="#263238"/>
<path d="M90.2961 232.751C89.0485 231.938 87.401 232.297 86.0586 232.934C84.7161 233.572 83.4483 234.46 81.9906 234.69C80.2752 234.968 78.5463 234.284 77.0208 233.422C75.4953 232.561 74.0512 231.497 72.4104 230.907C70.8191 230.369 69.1087 230.289 67.4739 230.675C65.8391 231.061 64.3453 231.898 63.1625 233.09V266.678C63.1625 266.678 65.0067 272.407 77.9971 271.513C90.9876 270.618 89.9638 264.875 89.9638 264.875L90.2961 232.751Z" fill="#FFBF00"/>
<path d="M55.8808 209.888C56.0729 208.649 56.0174 207.383 55.7174 206.165C55.4175 204.947 54.879 203.8 54.1331 202.791C53.3873 201.783 52.4488 200.932 51.3721 200.288C50.2954 199.644 49.1017 199.22 47.86 199.04C47.6325 198.982 47.3914 199.008 47.182 199.115C46.9041 199.305 46.8973 199.705 46.9244 200.037C47.1515 202.46 48.1397 204.749 49.7474 206.576C51.355 208.402 53.4996 209.674 55.874 210.207" fill="#455A64"/>
<path d="M42.5446 227.455C44.9447 232.404 48.3957 235.74 52.6739 235.903C53.5282 235.903 54.1723 235.367 54.9859 235.319C55.4589 235.43 55.915 235.603 56.3419 235.835C56.5563 235.929 56.7859 235.984 57.0199 235.997C61.4404 235.76 65.2033 232.655 67.7391 227.455C71.2714 220.18 70.1799 212.362 65.305 209.983C64.6653 209.664 63.9981 209.403 63.3117 209.203C62.523 208.991 61.7076 208.895 60.8912 208.918C59.0065 209.053 57.154 209.478 55.3994 210.179L55.1621 210.267C51.1958 208.518 48.0364 208.505 44.9921 209.989C40.0902 212.362 39.0054 220.18 42.5446 227.455Z" fill="#FFBF00"/>
<path d="M42.6258 220.086C42.3945 219.63 42.2562 219.132 42.219 218.621C42.0748 217.39 42.2238 216.142 42.6539 214.979C43.084 213.816 43.7829 212.771 44.6937 211.93C45.0531 211.565 45.4819 211.277 45.9548 211.082C45.9548 211.136 45.5073 211.448 44.8632 212.106C44.0401 212.967 43.4011 213.986 42.9852 215.103C42.5725 216.22 42.397 217.412 42.4699 218.601C42.5241 219.51 42.714 220.066 42.6258 220.086Z" fill="#FAFAFA"/>
<path d="M43.5276 223.543C43.4327 223.543 43.27 223.225 43.1683 222.777C43.0666 222.33 43.0598 221.957 43.1683 221.936C43.2768 221.916 43.4191 222.255 43.5276 222.703C43.6361 223.15 43.6225 223.523 43.5276 223.543Z" fill="#FAFAFA"/>
<path d="M65.9558 197.977C65.9558 198.038 65.0473 198.39 63.671 199.217C62.8702 199.699 62.1085 200.243 61.3929 200.845C60.5222 201.588 59.717 202.404 58.986 203.285C58.2696 204.179 57.63 205.132 57.074 206.133C56.6284 206.954 56.2476 207.809 55.935 208.689C55.3994 210.194 55.257 211.184 55.1689 211.17C55.1691 210.942 55.1941 210.715 55.2434 210.492C55.2767 210.22 55.3311 209.95 55.4062 209.686C55.4844 209.328 55.5817 208.975 55.6977 208.628C55.9829 207.72 56.3482 206.84 56.7893 205.997C57.873 203.923 59.3705 202.093 61.1895 200.621C61.9279 200.018 62.7199 199.485 63.5557 199.027C63.9015 198.817 64.2337 198.675 64.532 198.533C64.7778 198.41 65.0315 198.303 65.2914 198.214C65.5027 198.109 65.7257 198.029 65.9558 197.977Z" fill="#263238"/>
<path d="M28.2048 213.773L20.5231 310.673L92.1199 327.983C92.1199 327.983 117.097 319.514 117.436 318.938C117.775 318.362 117.87 218.594 117.87 218.594L92.0589 225.286L28.2048 213.773Z" fill="#FFBF00"/>
<g opacity="0.4">
<path d="M28.2048 213.772L20.5231 310.672L92.1199 327.982C92.1199 327.982 117.097 319.513 117.436 318.937C117.775 318.361 117.87 218.593 117.87 218.593L92.0589 225.285L28.2048 213.772Z" fill="black"/>
</g>
<path d="M140.502 100.899L136.509 157.451C136.195 161.901 134.205 166.067 130.941 169.108C127.678 172.149 123.382 173.839 118.921 173.839C116.506 173.844 114.116 173.353 111.898 172.395C109.681 171.438 107.683 170.036 106.03 168.275C104.378 166.514 103.104 164.432 102.289 162.158C101.474 159.885 101.135 157.468 101.293 155.058C101.646 149.675 101.971 145.261 101.971 145.261C101.971 145.261 88.2824 143.132 88.1129 129.443C88.018 121.538 89.3808 103.598 90.547 89.8547C90.9297 85.3659 92.9862 81.185 96.3082 78.1418C99.6302 75.0986 103.975 73.4156 108.48 73.4268H116.745C120.125 73.6254 123.431 74.4993 126.467 75.9971C129.504 77.4949 132.209 79.586 134.424 82.1471C136.639 84.7081 138.317 87.687 139.361 90.9079C140.405 94.1287 140.793 97.5261 140.502 100.899Z" fill="#FFBE9D"/>
<path d="M101.998 145.261C101.998 145.261 110.629 145.77 119.823 139.993C119.823 139.993 115.416 149.953 101.754 148.719L101.998 145.261Z" fill="#EB996E"/>
<path d="M93.1437 103.971C93.3878 104.229 94.8658 103.131 96.9744 103.137C99.083 103.144 100.615 104.195 100.846 103.937C100.954 103.822 100.71 103.368 100.039 102.873C99.1278 102.246 98.0466 101.912 96.9405 101.917C95.8459 101.919 94.7791 102.262 93.8895 102.9C93.2454 103.402 93.0285 103.863 93.1437 103.971Z" fill="#263238"/>
<path d="M115.938 106.392C115.936 106.901 116.131 107.391 116.483 107.759C116.834 108.127 117.314 108.344 117.823 108.365C118.073 108.386 118.325 108.357 118.563 108.28C118.802 108.202 119.022 108.077 119.212 107.913C119.402 107.749 119.556 107.548 119.667 107.323C119.778 107.098 119.842 106.853 119.857 106.602C119.862 106.093 119.668 105.601 119.316 105.232C118.964 104.863 118.482 104.647 117.972 104.629C117.722 104.607 117.47 104.636 117.231 104.713C116.992 104.79 116.771 104.915 116.581 105.079C116.391 105.244 116.236 105.445 116.126 105.67C116.016 105.896 115.952 106.141 115.938 106.392Z" fill="#263238"/>
<path d="M95.0421 106.391C95.0382 106.901 95.2328 107.392 95.5846 107.76C95.9365 108.128 96.4179 108.345 96.9269 108.364C97.1771 108.387 97.4292 108.358 97.6682 108.281C97.9072 108.204 98.1281 108.079 98.3179 107.915C98.5077 107.75 98.6625 107.549 98.773 107.324C98.8834 107.098 98.9474 106.852 98.9609 106.602C98.9683 106.092 98.7758 105.601 98.4247 105.232C98.0736 104.863 97.5918 104.646 97.0829 104.629C96.832 104.605 96.5788 104.632 96.3386 104.708C96.0984 104.784 95.8762 104.909 95.6855 105.074C95.4947 105.238 95.3393 105.44 95.2288 105.667C95.1182 105.893 95.0547 106.14 95.0421 106.391Z" fill="#263238"/>
<path d="M113.613 103.978C113.857 104.229 115.341 103.131 117.443 103.137C119.545 103.144 121.084 104.195 121.315 103.937C121.423 103.822 121.179 103.368 120.508 102.873C119.597 102.246 118.515 101.912 117.409 101.917C116.315 101.919 115.248 102.262 114.358 102.9C113.714 103.402 113.497 103.863 113.613 103.978Z" fill="#263238"/>
<path d="M105.978 119.572C105.978 119.456 104.683 119.233 102.588 118.962C102.053 118.9 101.544 118.799 101.456 118.433C101.407 117.878 101.53 117.322 101.809 116.839L103.402 112.771C105.605 106.947 107.205 102.161 106.968 102.073C106.731 101.984 104.751 106.635 102.548 112.459C101.983 113.874 101.474 115.237 101.022 116.548C100.689 117.198 100.591 117.943 100.744 118.656C100.823 118.846 100.944 119.016 101.098 119.152C101.251 119.288 101.434 119.388 101.632 119.443C101.929 119.524 102.234 119.567 102.541 119.572C104.649 119.687 105.971 119.694 105.978 119.572Z" fill="#263238"/>
<path d="M112.168 121.031C111.829 121.031 111.823 123.295 109.87 124.915C107.917 126.536 105.483 126.271 105.463 126.604C105.463 126.746 106.005 127.044 107.036 127.078C108.373 127.095 109.674 126.642 110.711 125.797C111.703 124.98 112.342 123.812 112.494 122.536C112.582 121.586 112.324 121.017 112.168 121.031Z" fill="#263238"/>
<path d="M113.07 97.1363C113.28 97.7058 115.375 97.4346 117.816 97.7329C120.257 98.0313 122.284 98.7025 122.61 98.194C122.759 97.9499 122.406 97.4075 121.606 96.838C120.536 96.1497 119.319 95.7245 118.053 95.5972C116.791 95.4438 115.51 95.5949 114.318 96.0379C113.436 96.4176 112.982 96.8651 113.07 97.1363Z" fill="#263238"/>
<path d="M93.4352 97.9508C93.8081 98.4322 95.259 97.9508 97.0015 97.9101C98.7439 97.8695 100.215 98.2356 100.561 97.7339C100.703 97.4898 100.473 97.0084 99.8287 96.5609C98.9635 96.0165 97.9557 95.7425 96.9339 95.7739C95.9122 95.8053 94.923 96.1407 94.0929 96.7372C93.4759 97.2254 93.2725 97.7203 93.4352 97.9508Z" fill="#263238"/>
<path d="M135.885 111.192C136.122 111.09 145.295 108.412 144.997 117.768C144.699 127.125 135.363 124.894 135.356 124.63C135.349 124.365 135.885 111.192 135.885 111.192Z" fill="#FFBE9D"/>
<path d="M138.312 121.152C138.353 121.152 138.475 121.274 138.746 121.409C139.127 121.586 139.562 121.608 139.96 121.47C140.963 121.138 141.844 119.599 141.939 117.911C141.993 117.11 141.863 116.308 141.56 115.565C141.481 115.269 141.332 114.997 141.126 114.771C140.919 114.546 140.661 114.374 140.373 114.27C140.187 114.214 139.987 114.226 139.809 114.302C139.63 114.379 139.484 114.517 139.397 114.69C139.261 114.948 139.315 115.138 139.268 115.151C139.221 115.165 139.071 114.989 139.16 114.602C139.222 114.373 139.358 114.17 139.546 114.026C139.81 113.84 140.136 113.764 140.455 113.816C140.836 113.905 141.189 114.09 141.48 114.353C141.77 114.617 141.989 114.95 142.116 115.321C142.486 116.146 142.651 117.049 142.597 117.951C142.475 119.836 141.451 121.565 140.088 121.918C139.834 121.982 139.569 121.988 139.312 121.937C139.055 121.885 138.813 121.777 138.604 121.619C138.312 121.362 138.312 121.172 138.312 121.152Z" fill="#EB996E"/>
<path d="M141.092 110.853C139.668 110.507 137.2 111.829 136.59 113.164C135.98 114.5 135.844 116.012 135.234 117.348C134.624 118.683 133.254 119.897 131.844 119.558C131.36 119.405 130.925 119.128 130.583 118.752C130.241 118.377 130.005 117.918 129.898 117.422C129.701 116.426 129.701 115.401 129.898 114.405C130.447 110.032 131.363 105.7 131.539 101.299C131.715 96.8993 131.091 92.3228 128.779 88.5734C126.467 84.8241 122.223 82.0646 117.83 82.4172C114.921 82.6545 112.257 84.1732 109.368 84.5732C107.65 84.8008 105.902 84.6339 104.257 84.0853C102.612 83.5367 101.114 82.6208 99.8763 81.407C99.5576 81.0951 98.0999 80.1255 98.0999 80.1255C98.0999 79.9018 98.3101 77.9492 99.083 77.2373C104.812 71.9353 115.145 70.4573 122.718 72.3624C130.291 74.2676 137.39 79.6103 140.644 86.7089C143.899 93.8076 142.936 103.659 141.139 110.853" fill="#263238"/>
<path d="M89.0757 87.3874C90.3029 90.2283 93.4352 91.8826 96.5337 92.1945C99.6321 92.5063 102.69 91.7063 105.666 90.8385C108.643 89.9706 116.636 88.6689 119.735 88.7638C120.196 88.7638 120.752 88.7638 121.003 88.3773C121.328 87.8553 120.806 87.2247 120.325 86.8518C116.257 83.6517 106.378 81.6922 101.198 81.4753C96.0184 81.2583 90.5876 83.5093 87.7807 87.8417" fill="#263238"/>
<path d="M90.4249 87.7401C90.4249 87.7401 126.359 76.2141 141.872 107.26C141.872 107.26 144.19 99.483 144.19 95.3133C144.19 92.5336 142.529 75.9497 125.471 70.7359C125.471 70.7359 99.7677 60.932 90.4249 87.7401Z" fill="#FFBF00"/>
<g opacity="0.4">
<path d="M90.4249 87.7401C93.4122 84.5943 97.5077 82.7362 101.842 82.5602C112.44 82.0856 132.264 88.0452 141.844 107.26C141.844 107.26 144.163 99.483 144.163 95.3133C144.163 92.5336 142.502 75.9497 125.444 70.7359C125.471 70.7359 99.7677 60.932 90.4249 87.7401Z" fill="black"/>
</g>
<path d="M140.346 103.619C134.899 95.5096 127.761 88.6748 119.423 83.5845C111.192 78.4249 97.5439 73.3264 88.14 70.8246C85.3196 70.0788 82.377 69.4211 79.4955 69.9228C76.614 70.4245 73.7936 72.3365 73.0817 75.1705C72.1867 78.7165 78.5057 84.1879 81.4414 86.3372C84.3395 88.2688 87.3407 90.041 90.4317 91.6459C90.4317 91.6459 90.3503 85.0693 100.88 83.7133C115.192 81.8692 140.346 103.619 140.346 103.619Z" fill="#FFBF00"/>
<path d="M110.921 76.7831C110.921 76.7831 105.741 73.9219 100.547 73.2575C101.412 72.5756 102.36 72.0061 103.368 71.5625C106.189 72.03 108.918 72.9456 111.45 74.2745L110.921 76.7831Z" fill="#FAFAFA"/>
<path d="M156.035 170.069C156.035 170.069 146.218 181.29 147.302 196.904C147.452 199.067 147.56 202.084 147.824 204.24C149.479 217.638 152.042 230.072 152.042 230.072H152.977L187.209 221.617C187.209 221.617 182.05 191.901 180.863 187.955C177.073 175.324 164.076 168.374 164.076 168.374L156.035 170.069Z" fill="#FFBF00"/>
<path d="M117.436 318.938C117.436 318.938 117.436 318.768 117.436 318.436C117.436 318.104 117.436 317.595 117.436 316.944C117.436 315.629 117.436 313.703 117.436 311.215C117.436 306.218 117.436 299.011 117.477 289.98C117.538 271.952 117.626 246.866 117.728 218.573L117.945 218.743L104.927 222.133L92.1403 225.448L92.2691 225.279C92.4454 239.462 92.3979 252.846 92.3301 264.942C92.2623 277.037 92.1945 287.838 92.1403 296.869C92.086 305.9 92.1403 313.141 92.1403 318.158C92.1403 320.653 92.1403 322.585 92.1403 323.907V325.399C92.1403 325.067 92.1403 324.558 92.1403 323.907C92.1403 322.551 92.0928 320.653 92.0521 318.158C91.9911 313.161 91.9504 305.9 91.9572 296.869C91.964 287.838 92.0318 277.03 92.0725 264.942C92.1132 252.853 92.1538 239.462 91.9708 225.285V225.143L92.1064 225.109L104.887 221.794L117.911 218.404L118.135 218.343V218.573C117.986 246.866 117.857 271.959 117.769 289.98C117.708 298.984 117.653 306.218 117.62 311.215C117.62 313.703 117.579 315.629 117.565 316.944C117.565 317.622 117.565 318.09 117.565 318.436C117.565 318.782 117.436 318.938 117.436 318.938Z" fill="#263238"/>
<path d="M101.585 149.892C101.585 149.892 100.229 162.917 104.609 164.944C109.551 167.222 114.48 164.991 117.491 163.059C125.566 157.906 137.566 143.594 137.566 143.594L145.702 154.157C145.702 154.157 125.213 178.782 121.098 178.619C118.386 178.518 114.216 175.907 111.606 174.07C110.177 173.072 108.904 171.868 107.829 170.497L104.283 165.988C99.8559 168.171 96.276 170.971 93.8013 174.558C93.8013 174.558 92.6216 165.439 94.7437 161.303C96.8659 157.167 101.097 150.028 101.097 150.028L101.585 149.892Z" fill="#FFBF00"/>
<path d="M94.4929 161.655C94.4764 161.733 94.4491 161.808 94.4116 161.879C94.3505 162.041 94.2624 162.251 94.1471 162.516C93.8656 163.358 93.6636 164.226 93.5437 165.106C93.1501 168.348 93.1501 171.627 93.5437 174.869L93.2996 174.822C94.4402 172.895 95.9302 171.198 97.6931 169.818C99.6888 168.196 101.869 166.814 104.188 165.702L104.297 165.648L104.378 165.743C105.809 167.404 107.321 169.133 108.914 170.889C110.508 172.729 112.302 174.384 114.263 175.825C115.2 176.488 116.219 177.029 117.294 177.432C117.823 177.624 118.367 177.772 118.921 177.873C119.464 177.961 120.015 177.981 120.562 177.934C122.766 177.73 124.63 176.469 126.176 175.14L140.204 160.184L144.272 155.892L145.363 154.76L145.648 154.468L145.756 154.38L145.675 154.488L145.404 154.8L144.353 155.966L140.353 160.326L126.427 175.364C125.624 176.079 124.746 176.707 123.81 177.235C122.829 177.791 121.744 178.138 120.623 178.252C120.044 178.3 119.462 178.279 118.887 178.191C118.312 178.09 117.747 177.938 117.199 177.737C116.092 177.323 115.041 176.769 114.074 176.089C112.084 174.635 110.264 172.961 108.65 171.099C107.049 169.337 105.538 167.601 104.114 165.933L104.31 165.974C102.013 167.076 99.852 168.441 97.8694 170.042C96.149 171.393 94.69 173.048 93.5641 174.923L93.3606 175.276L93.32 174.876C92.9412 171.612 92.9776 168.313 93.4285 165.058C93.5675 164.177 93.7946 163.311 94.1065 162.475C94.2285 162.19 94.337 161.987 94.4048 161.845C94.43 161.78 94.4594 161.716 94.4929 161.655Z" fill="#263238"/>
<g opacity="0.3">
<path d="M94.9945 172.632C94.8576 172.973 94.8324 173.35 94.9226 173.706C95.0127 174.063 95.2135 174.383 95.4963 174.618C95.7787 174.727 96.0853 174.755 96.383 174.702C96.6806 174.648 96.9578 174.513 97.1845 174.313C97.6286 173.907 98.0122 173.439 98.3235 172.923C99.1344 171.754 100.109 170.709 101.219 169.818C102.31 168.937 103.809 168.191 105.063 168.815C105.847 169.333 106.442 170.092 106.758 170.977C108.46 174.455 110.5 177.995 113.829 179.981C117.158 181.968 121.437 182.056 125.105 180.761C128.751 179.341 131.959 176.987 134.407 173.933C136.835 170.889 138.988 167.636 140.841 164.211C142.373 161.56 143.926 158.828 144.4 155.804C143.98 156.041 142.99 157.567 142.57 157.804C142.57 157.804 126.766 175.208 125.281 176.11C123.796 177.012 119.701 183.019 108.1 170.008L104.263 165.845C104.263 165.845 96.9539 169.391 94.9945 172.632Z" fill="black"/>
</g>
<path d="M137.324 210.182L119.946 207.517L119.141 212.764L136.519 215.429L137.324 210.182Z" fill="white"/>
<path d="M184.335 222.275L157.215 228.832L160.347 254.413L108.412 293.418C106.338 293.709 104.209 294.042 103.029 294.34C100.188 295.018 95.1709 302.171 93.7538 302.883L83.6313 310.693C83.6313 310.693 82.7431 314.246 87.3603 313.534C91.9775 312.822 97.1235 309.276 97.6591 309.276C98.1947 309.276 99.8084 310.354 99.0151 312.666C98.3371 314.7 95.5573 321.697 95.5573 321.697L92.1199 328.003C92.1199 328.003 106.982 328.491 111.104 322.979C113.924 319.236 122.63 308.625 122.63 308.625C122.63 308.625 183.765 278.549 187.433 272.251C192.43 263.681 184.335 222.275 184.335 222.275Z" fill="#FFBE9D"/>
<path d="M171.832 265.437C171.869 264.504 171.828 263.57 171.71 262.644C171.382 260.407 170.286 258.355 168.61 256.838C166.933 255.321 164.782 254.435 162.523 254.332C161.59 254.306 160.655 254.358 159.73 254.488C159.962 254.377 160.208 254.302 160.462 254.264C161.144 254.119 161.84 254.058 162.537 254.081C164.874 254.12 167.117 255.006 168.849 256.575C170.582 258.144 171.685 260.288 171.954 262.61C172.038 263.301 172.038 264 171.954 264.692C171.95 264.945 171.909 265.196 171.832 265.437Z" fill="#EB996E"/>
<path d="M104.331 318.45C104.277 319.031 104.159 319.604 103.978 320.159C103.631 321.53 103.126 322.857 102.473 324.112C101.823 325.395 100.833 326.476 99.6118 327.237C99.2387 327.459 98.8341 327.624 98.4117 327.725C98.2595 327.778 98.0969 327.794 97.9371 327.773C98.472 327.567 98.989 327.318 99.483 327.027C100.625 326.235 101.556 325.176 102.195 323.942C102.82 322.704 103.335 321.413 103.734 320.084C103.885 319.523 104.085 318.977 104.331 318.45Z" fill="#EB996E"/>
<path d="M111.531 316.083C111.429 316.652 111.253 317.206 111.009 317.731C110.499 319.028 109.905 320.292 109.233 321.514C108.558 322.735 107.806 323.913 106.982 325.039C106.669 325.536 106.295 325.991 105.87 326.395C106.131 325.881 106.435 325.388 106.778 324.924C107.361 324.036 108.134 322.788 108.921 321.371C109.707 319.954 110.338 318.659 110.778 317.663C110.983 317.115 111.235 316.587 111.531 316.083Z" fill="#EB996E"/>
<path d="M111.334 271.811C111.408 272.094 111.449 272.385 111.456 272.678C111.517 273.234 111.565 274.034 111.592 275.045C111.72 280.278 110.963 285.495 109.355 290.476C109.043 291.425 108.772 292.191 108.555 292.707C108.462 292.982 108.342 293.248 108.195 293.5C108.241 293.212 108.318 292.93 108.426 292.659C108.602 292.13 108.839 291.357 109.104 290.401C109.832 287.91 110.385 285.37 110.758 282.801C111.125 280.232 111.315 277.64 111.328 275.045C111.328 274.048 111.328 273.241 111.328 272.685C111.302 272.394 111.305 272.101 111.334 271.811Z" fill="#263238"/>
<path d="M96.6422 279.953C96.9719 280.646 97.2573 281.36 97.4964 282.089C97.9982 283.445 98.6965 285.248 99.5304 287.248C100.364 289.249 101.137 291.045 101.714 292.34C102.053 293.029 102.35 293.737 102.602 294.462C102.165 293.823 101.792 293.141 101.49 292.428C100.853 291.154 100.032 289.371 99.205 287.364C98.3778 285.357 97.7202 283.506 97.2795 282.15C96.9998 281.439 96.7865 280.703 96.6422 279.953Z" fill="#263238"/>
<path d="M92.703 297.506C92.5663 297.565 92.4228 297.606 92.2759 297.628L91.0351 297.927C90.4927 298.056 89.8351 298.205 89.0554 298.334C88.2757 298.462 87.401 298.652 86.4112 298.774C85.4213 298.896 84.3772 299.066 83.1907 299.167C82.0042 299.269 80.777 299.357 79.4684 299.432C73.7689 299.685 68.0597 299.25 62.4642 298.137C61.1828 297.859 59.9556 297.615 58.8301 297.303C57.7046 296.991 56.6537 296.72 55.7045 296.428C54.7553 296.137 53.9011 295.845 53.1553 295.594C52.4095 295.344 51.7993 295.099 51.2636 294.916L50.0771 294.442C49.9372 294.388 49.8012 294.325 49.6703 294.252C49.8198 294.273 49.9658 294.314 50.1043 294.374L51.3111 294.788C51.8264 294.977 52.4705 295.208 53.2163 295.466C53.9621 295.723 54.8164 295.994 55.7723 296.245C56.7283 296.496 57.7657 296.815 58.8979 297.072C60.0302 297.33 61.2438 297.608 62.5252 297.872C65.3131 298.393 68.1261 298.768 70.9528 298.998C73.782 299.201 76.6199 299.255 79.4549 299.161C80.7634 299.093 82.0042 299.045 83.1635 298.93C84.3229 298.815 85.3942 298.706 86.3773 298.584C87.3604 298.462 88.2418 298.313 89.0215 298.191C89.8012 298.069 90.4656 297.954 91.008 297.845L92.2623 297.615C92.4046 297.562 92.5524 297.525 92.703 297.506Z" fill="#263238"/>
<path d="M90.1197 285.716C88.9978 285.306 87.9191 284.786 86.8992 284.163C85.8255 283.642 84.8039 283.02 83.8482 282.306C84.9723 282.711 86.0515 283.231 87.0687 283.858C88.1451 284.374 89.1672 284.997 90.1197 285.716Z" fill="#263238"/>
<path d="M187.209 221.618L187.04 221.672L186.538 221.808L184.599 222.303L177.304 224.106L152.082 230.208L151.899 230.249V230.066C151.187 225.408 150.211 220.384 149.269 215.15C148.652 211.658 148.116 208.234 147.75 204.912C147.384 201.59 147.221 198.356 147.174 195.278C147.099 192.365 147.269 189.45 147.682 186.565C148.049 184.042 148.799 181.588 149.906 179.29C150.853 177.408 152.119 175.703 153.648 174.253C154.799 173.157 156.12 172.254 157.56 171.582C158.476 171.172 159.436 170.87 160.422 170.68L161.195 170.585C161.282 170.576 161.371 170.576 161.459 170.585C161.373 170.613 161.284 170.631 161.195 170.639L160.435 170.775C159.465 170.984 158.521 171.303 157.622 171.724C156.207 172.42 154.912 173.335 153.784 174.436C152.29 175.884 151.055 177.576 150.13 179.44C149.054 181.72 148.327 184.15 147.974 186.647C147.575 189.519 147.417 192.42 147.499 195.318C147.553 198.383 147.729 201.597 148.096 204.912C148.462 208.228 149.004 211.645 149.621 215.13C150.557 220.357 151.526 225.388 152.238 230.046L152.028 229.903L177.284 223.903L184.599 222.194L186.552 221.754L187.06 221.645C187.109 221.631 187.159 221.622 187.209 221.618Z" fill="#263238"/>
</svg>
