<svg width="25" height="25" viewBox="0 0 31 31" fill="none" xmlns="http://www.w3.org/2000/svg">
<path d="M21.6341 23.0013L22.8258 21.8096L16.3386 15.3224V7.25637H14.6554V16.0226L21.6341 23.0013ZM15.502 30.8216C13.4081 30.8216 11.4387 30.4244 9.59389 29.6299C7.75019 28.8343 6.14607 27.7548 4.78153 26.3914C3.41699 25.0279 2.33692 23.4255 1.54131 21.584C0.745704 19.7426 0.3479 17.7738 0.3479 15.6776C0.3479 13.5814 0.745704 11.612 1.54131 9.76943C2.3358 7.92573 3.41363 6.32161 4.7748 4.95707C6.13597 3.59253 7.73897 2.51246 9.5838 1.71685C11.4286 0.921242 13.398 0.523438 15.4919 0.523438C17.5859 0.523438 19.5553 0.921242 21.4001 1.71685C23.2438 2.51134 24.8479 3.58973 26.2124 4.95202C27.577 6.31432 28.6571 7.91732 29.4527 9.76102C30.2483 11.6047 30.6461 13.5735 30.6461 15.6675C30.6461 17.7614 30.2488 19.7308 29.4543 21.5756C28.6599 23.4204 27.5804 25.0246 26.2158 26.388C24.8513 27.7514 23.2488 28.8315 21.4085 29.6282C19.5682 30.4249 17.5993 30.8227 15.502 30.8216ZM15.497 29.1384C19.2282 29.1384 22.4055 27.8271 25.0291 25.2047C27.6527 22.5822 28.964 19.4048 28.9628 15.6725C28.9617 11.9402 27.6505 8.76286 25.0291 6.14038C22.4078 3.51791 19.2304 2.20667 15.497 2.20667C11.7636 2.20667 8.5862 3.51847 5.96485 6.14207C3.34349 8.76567 2.03225 11.9425 2.03113 15.6725C2.03001 19.4026 3.34181 22.58 5.96653 25.2047C8.59125 27.8294 11.7681 29.1406 15.497 29.1384Z" fill="#FFBF00"/>
</svg>
