<svg width="23" height="23" viewBox="0 0 23 23" fill="none" xmlns="http://www.w3.org/2000/svg">
<path d="M5.97368 17.0263V12.6053M11.5 17.0263V5.97368M17.0263 17.0263V10.3947M1 11.5C1 6.55063 1 4.07484 2.53742 2.53742C4.07484 1 6.54953 1 11.5 1C16.4494 1 18.9252 1 20.4626 2.53742C22 4.07484 22 6.54953 22 11.5C22 16.4494 22 18.9252 20.4626 20.4626C18.9252 22 16.4505 22 11.5 22C6.55063 22 4.07484 22 2.53742 20.4626C1 18.9252 1 16.4505 1 11.5Z" stroke="#FFBF00" stroke-width="1.5" stroke-linecap="round" stroke-linejoin="round"/>
</svg>
