<svg width="35" height="35" viewBox="0 0 21 19" fill="none" xmlns="http://www.w3.org/2000/svg">
<path d="M7.19425 15.5519H3.88906C3.01246 15.5519 2.17177 15.2167 1.55193 14.6201C0.932087 14.0235 0.583862 13.2142 0.583862 12.3705V3.88655C0.583862 3.04277 0.932087 2.23355 1.55193 1.63691C2.17177 1.04027 3.01246 0.705078 3.88906 0.705078H17.1098C17.9864 0.705078 18.8271 1.04027 19.447 1.63691C20.0668 2.23355 20.415 3.04277 20.415 3.88655V12.3705C20.415 13.2142 20.0668 14.0235 19.447 14.6201C18.8271 15.2167 17.9864 15.5519 17.1098 15.5519H13.8046L11.7497 17.53C11.0516 18.2019 9.94726 18.2019 9.24919 17.53L7.19425 15.5519Z" fill="#FFBF00"/>
</svg>
