<svg width="18" height="18" viewBox="0 0 13 13" fill="none" xmlns="http://www.w3.org/2000/svg">
<path d="M3.11538 6.50053V4.27515C3.12199 3.83771 3.21485 3.40588 3.38864 3.0044C3.56243 2.60291 3.81373 2.23966 4.12814 1.93547C4.44256 1.63127 4.81391 1.3921 5.22092 1.23167C5.62792 1.07124 6.06259 0.992692 6.5 1.00053C6.93741 0.992692 7.37208 1.07124 7.77908 1.23167C8.18609 1.3921 8.55744 1.63127 8.87186 1.93547C9.18627 2.23966 9.43757 2.60291 9.61136 3.0044C9.78515 3.40588 9.87801 3.83771 9.88462 4.27515V6.50053M8.19231 10.9428C8.64114 10.9428 9.07158 10.7645 9.38895 10.4472C9.70632 10.1298 9.88462 9.69936 9.88462 9.25053V7.34669M8.19231 10.9428C8.19231 11.2234 8.08087 11.4924 7.88252 11.6907C7.68416 11.8891 7.41513 12.0005 7.13462 12.0005H5.86538C5.58487 12.0005 5.31584 11.8891 5.11748 11.6907C4.91913 11.4924 4.80769 11.2234 4.80769 10.9428C4.80769 10.6623 4.91913 10.3933 5.11748 10.1949C5.31584 9.99658 5.58487 9.88515 5.86538 9.88515H7.13462C7.41513 9.88515 7.68416 9.99658 7.88252 10.1949C8.08087 10.3933 8.19231 10.6623 8.19231 10.9428ZM1.84615 5.2313H2.69231C2.80451 5.2313 2.91213 5.27588 2.99147 5.35522C3.07081 5.43456 3.11538 5.54217 3.11538 5.65438V8.19284C3.11538 8.30505 3.07081 8.41266 2.99147 8.492C2.91213 8.57135 2.80451 8.61592 2.69231 8.61592H1.84615C1.62174 8.61592 1.40652 8.52677 1.24783 8.36809C1.08915 8.2094 1 7.99418 1 7.76977V6.07746C1 5.85304 1.08915 5.63782 1.24783 5.47914C1.40652 5.32045 1.62174 5.2313 1.84615 5.2313ZM11.1538 8.61592H10.3077C10.1955 8.61592 10.0879 8.57135 10.0085 8.492C9.92919 8.41266 9.88462 8.30505 9.88462 8.19284V5.65438C9.88462 5.54217 9.92919 5.43456 10.0085 5.35522C10.0879 5.27588 10.1955 5.2313 10.3077 5.2313H11.1538C11.3783 5.2313 11.5935 5.32045 11.7522 5.47914C11.9109 5.63782 12 5.85304 12 6.07746V7.76977C12 7.99418 11.9109 8.2094 11.7522 8.36809C11.5935 8.52677 11.3783 8.61592 11.1538 8.61592Z" stroke="#898989" stroke-width="0.846154" stroke-linecap="round" stroke-linejoin="round"/>
</svg>
