<svg width="25" height="25" viewBox="0 0 31 27" fill="none" xmlns="http://www.w3.org/2000/svg">
<path d="M5.77167 10.1027C6.04162 7.6672 7.20032 5.41682 9.02597 3.78235C10.8516 2.14788 13.2159 1.24414 15.6663 1.24414C18.1167 1.24414 20.4811 2.14788 22.3067 3.78235C24.1324 5.41682 25.2911 7.6672 25.561 10.1027L26.0101 14.1411L26.0208 14.2427C26.2509 16.2459 26.9033 18.1775 27.9349 19.91L27.9883 19.9991L29.0167 21.7154C29.9523 23.273 30.4192 24.0518 30.3177 24.6916C30.2506 25.1163 30.0322 25.5024 29.7028 25.7788C29.2056 26.1958 28.2967 26.1958 26.4806 26.1958H4.85207C3.03424 26.1958 2.12533 26.1958 1.62988 25.7805C1.29948 25.504 1.08042 25.1172 1.01325 24.6916C0.913448 24.0518 1.38038 23.273 2.31424 21.7154L3.34613 19.9974L3.39959 19.9082C4.43033 18.1761 5.08208 16.2452 5.31187 14.2427L5.32256 14.1411L5.77167 10.1027Z" stroke="#FEC20F" stroke-width="1.26242"/>
</svg>
