<svg width="16" height="16" viewBox="0 0 16 16" fill="none" xmlns="http://www.w3.org/2000/svg">
<path fill-rule="evenodd" clip-rule="evenodd" d="M7.57465 5.20898C6.83451 5.20898 6.12468 5.503 5.60133 6.02636C5.07797 6.54972 4.78395 7.25954 4.78395 7.99968C4.78395 8.73982 5.07797 9.44965 5.60133 9.973C6.12468 10.4964 6.83451 10.7904 7.57465 10.7904C8.31479 10.7904 9.02461 10.4964 9.54797 9.973C10.0713 9.44965 10.3653 8.73982 10.3653 7.99968C10.3653 7.25954 10.0713 6.54972 9.54797 6.02636C9.02461 5.503 8.31479 5.20898 7.57465 5.20898ZM5.90023 7.99968C5.90023 7.5556 6.07664 7.1297 6.39066 6.81569C6.70467 6.50168 7.13057 6.32526 7.57465 6.32526C8.01873 6.32526 8.44463 6.50168 8.75864 6.81569C9.07266 7.1297 9.24907 7.5556 9.24907 7.99968C9.24907 8.44377 9.07266 8.86966 8.75864 9.18367C8.44463 9.49769 8.01873 9.6741 7.57465 9.6741C7.13057 9.6741 6.70467 9.49769 6.39066 9.18367C6.07664 8.86966 5.90023 8.44377 5.90023 7.99968Z" fill="#FFBF00"/>
<path fill-rule="evenodd" clip-rule="evenodd" d="M7.55605 0C7.22489 0 6.9488 -1.38615e-08 6.72256 0.0148837C6.49132 0.0245133 6.26325 0.0722886 6.04759 0.156279C5.79921 0.259043 5.57352 0.409729 5.38339 0.59973C5.19326 0.789731 5.04242 1.01532 4.93949 1.26363C4.83159 1.52409 4.80256 1.79944 4.79066 2.0986C4.78947 2.20802 4.7605 2.31533 4.70648 2.41048C4.65246 2.50564 4.57516 2.58551 4.48182 2.6426C4.38573 2.69507 4.27789 2.72226 4.16841 2.72161C4.05893 2.72095 3.95142 2.69249 3.85596 2.63888C3.59103 2.49898 3.33801 2.3866 3.05819 2.3494C2.79173 2.31435 2.52098 2.33212 2.26139 2.40171C2.0018 2.4713 1.75846 2.59134 1.54526 2.75498C1.365 2.9 1.20987 3.07374 1.0861 3.26921C0.959587 3.45823 0.821168 3.69712 0.655959 3.98363L0.637354 4.01637C0.471401 4.30288 0.333726 4.54177 0.234005 4.74567C0.129819 4.95851 0.0479589 5.16837 0.0181914 5.40056C-0.0528037 5.9386 0.0928181 6.48281 0.423029 6.91349C0.594936 7.13749 0.818936 7.30047 1.07196 7.45972C1.16629 7.51549 1.24489 7.59434 1.30035 7.68886C1.3558 7.78338 1.38631 7.89045 1.38898 8C1.38631 8.10955 1.3558 8.21662 1.30035 8.31114C1.24489 8.40566 1.16629 8.48451 1.07196 8.54028C0.818936 8.69953 0.59568 8.86251 0.423029 9.08651C0.259395 9.29971 0.139356 9.54305 0.0697658 9.80264C0.000175947 10.0622 -0.0176019 10.333 0.0174473 10.5994C0.0479589 10.8316 0.129075 11.0415 0.233261 11.2543C0.333726 11.4582 0.471401 11.6971 0.637354 11.9836L0.655959 12.0164C0.821168 12.3029 0.959587 12.5418 1.0861 12.7308C1.21782 12.9265 1.35921 13.1029 1.54526 13.2443C1.7584 13.408 2.00172 13.5282 2.26131 13.5979C2.5209 13.6677 2.79168 13.6855 3.05819 13.6506C3.33801 13.6134 3.59103 13.5018 3.85596 13.3611C3.9513 13.3076 4.05869 13.2791 4.16804 13.2785C4.27738 13.2778 4.3851 13.305 4.48108 13.3574C4.57493 13.414 4.65272 13.4938 4.70704 13.589C4.76136 13.6842 4.79041 13.7918 4.7914 13.9014C4.80256 14.2006 4.83159 14.4759 4.94024 14.7364C5.043 14.9847 5.19369 15.2104 5.38369 15.4006C5.57369 15.5907 5.79928 15.7415 6.04759 15.8445C6.2634 15.9338 6.48666 15.9687 6.72256 15.9844C6.9488 16 7.22489 16 7.55605 16H7.59326C7.92442 16 8.20052 16 8.42675 15.9851C8.6634 15.9687 8.88591 15.9338 9.10173 15.8437C9.3501 15.741 9.57579 15.5903 9.76592 15.4003C9.95605 15.2103 10.1069 14.9847 10.2098 14.7364C10.3177 14.4759 10.3467 14.2006 10.3587 13.9014C10.3597 13.7919 10.3886 13.6844 10.4427 13.5891C10.4967 13.4938 10.574 13.4138 10.6675 13.3567C10.7636 13.3043 10.8715 13.2772 10.981 13.278C11.0905 13.2788 11.198 13.3074 11.2934 13.3611C11.5583 13.501 11.8113 13.6134 12.0911 13.6499C12.6292 13.7209 13.1734 13.5752 13.6041 13.245C13.7901 13.1021 13.9315 12.9265 14.0632 12.7308C14.1897 12.5418 14.3281 12.3029 14.4934 12.0164L14.512 11.9836C14.6779 11.6971 14.8156 11.4582 14.9153 11.2543C15.0195 11.0415 15.1014 10.8309 15.1311 10.5994C15.2021 10.0614 15.0565 9.51719 14.7263 9.08651C14.5544 8.86251 14.3304 8.69953 14.0774 8.54028C13.983 8.48451 13.9044 8.40566 13.849 8.31114C13.7935 8.21662 13.763 8.10955 13.7603 8C13.7603 7.79312 13.8734 7.58772 14.0774 7.45972C14.3304 7.30047 14.5536 7.13749 14.7263 6.91349C14.8899 6.70029 15.01 6.45695 15.0795 6.19736C15.1491 5.93777 15.1669 5.66702 15.1319 5.40056C15.0964 5.17188 15.0235 4.95061 14.9161 4.74567C14.789 4.49842 14.6542 4.2552 14.512 4.01637L14.4934 3.98363C14.3574 3.74109 14.214 3.50283 14.0632 3.26921C13.9395 3.07395 13.7843 2.90045 13.6041 2.75572C13.3909 2.59196 13.1476 2.47178 12.888 2.40207C12.6284 2.33235 12.3576 2.31445 12.0911 2.3494C11.8113 2.3866 11.5583 2.49823 11.2934 2.63888C11.198 2.69236 11.0906 2.72075 10.9813 2.7214C10.8719 2.72205 10.7642 2.69494 10.6682 2.6426C10.5746 2.58569 10.497 2.50589 10.4427 2.41073C10.3884 2.31557 10.3593 2.20816 10.3579 2.0986C10.3467 1.79944 10.3177 1.52409 10.2091 1.26363C10.1063 1.01526 9.95563 0.78956 9.76562 0.599432C9.57562 0.409303 9.35003 0.258466 9.10173 0.155535C8.88591 0.0662326 8.66266 0.0312558 8.42675 0.0156279C8.20052 2.07923e-08 7.92442 0 7.59326 0H7.55605ZM6.47475 1.18698C6.53205 1.16316 6.61912 1.14158 6.79847 1.12893C6.98228 1.11628 7.22042 1.11628 7.57466 1.11628C7.92889 1.11628 8.16703 1.11628 8.35084 1.12893C8.53019 1.14158 8.61726 1.16316 8.67456 1.18698C8.90303 1.28149 9.08387 1.46233 9.17838 1.69079C9.20815 1.76223 9.2327 1.8746 9.24238 2.14028C9.2647 2.72967 9.56908 3.29749 10.1094 3.6093C10.6496 3.92186 11.2934 3.90102 11.815 3.62567C12.0502 3.5014 12.1596 3.46642 12.237 3.45674C12.4815 3.42443 12.7288 3.49055 12.9246 3.64056C12.9737 3.67851 13.0362 3.74326 13.1367 3.89209C13.2401 4.0454 13.3592 4.25153 13.5363 4.55814C13.7134 4.86474 13.8318 5.07163 13.9129 5.23684C13.9925 5.39833 14.0171 5.48465 14.0245 5.54642C14.0568 5.79093 13.9907 6.03827 13.8407 6.23405C13.7931 6.29581 13.7082 6.37321 13.4835 6.5146C12.9834 6.82865 12.6441 7.37637 12.6441 8C12.6441 8.62363 12.9834 9.17135 13.4835 9.4854C13.7082 9.62679 13.7931 9.70419 13.8407 9.76595C13.991 9.96167 14.0565 10.2087 14.0245 10.4536C14.0171 10.5153 13.9918 10.6024 13.9129 10.7632C13.8318 10.9291 13.7134 11.1353 13.5363 11.4419C13.3592 11.7485 13.2394 11.9546 13.1367 12.1079C13.0362 12.2567 12.9737 12.3215 12.9246 12.3594C12.7288 12.5094 12.4815 12.5756 12.237 12.5433C12.1596 12.5336 12.0509 12.4986 11.815 12.3743C11.2941 12.099 10.6496 12.0781 10.1094 12.39C9.56908 12.7025 9.2647 13.2703 9.24238 13.8597C9.2327 14.1254 9.20815 14.2378 9.17838 14.3092C9.13163 14.4222 9.06307 14.5248 8.97662 14.6113C8.89017 14.6977 8.78753 14.7663 8.67456 14.813C8.61726 14.8368 8.53019 14.8584 8.35084 14.8711C8.16703 14.8837 7.92889 14.8837 7.57466 14.8837C7.22042 14.8837 6.98228 14.8837 6.79847 14.8711C6.61912 14.8584 6.53205 14.8368 6.47475 14.813C6.36178 14.7663 6.25914 14.6977 6.17269 14.6113C6.08625 14.5248 6.01769 14.4222 5.97094 14.3092C5.94117 14.2378 5.91661 14.1254 5.90694 13.8597C5.88461 13.2703 5.58024 12.7025 5.03996 12.3907C4.49968 12.0781 3.85596 12.099 3.33428 12.3743C3.09912 12.4986 2.98973 12.5336 2.91233 12.5433C2.66782 12.5756 2.42048 12.5094 2.2247 12.3594C2.17559 12.3215 2.11308 12.2567 2.01261 12.1079C1.87264 11.89 1.73937 11.6679 1.61298 11.4419C1.43587 11.1353 1.31754 10.9284 1.23642 10.7632C1.1568 10.6017 1.13224 10.5153 1.1248 10.4536C1.09249 10.2091 1.1586 9.96173 1.30861 9.76595C1.35624 9.70419 1.44108 9.62679 1.66582 9.4854C2.16591 9.17135 2.50526 8.62363 2.50526 8C2.50526 7.37637 2.16591 6.82865 1.66582 6.5146C1.44108 6.37321 1.35624 6.29581 1.30861 6.23405C1.1586 6.03827 1.09249 5.79093 1.1248 5.54642C1.13224 5.48465 1.15754 5.39758 1.23642 5.23684C1.31754 5.07088 1.43587 4.86474 1.61298 4.55814C1.7901 4.25153 1.90991 4.0454 2.01261 3.89209C2.11308 3.74326 2.17559 3.67851 2.2247 3.64056C2.42048 3.49055 2.66782 3.42443 2.91233 3.45674C2.98973 3.46642 3.09838 3.5014 3.33428 3.62567C3.85521 3.90102 4.49968 3.92186 5.03996 3.6093C5.58024 3.29749 5.88461 2.72967 5.90694 2.14028C5.91661 1.8746 5.94117 1.76223 5.97094 1.69079C6.06545 1.46233 6.24628 1.28149 6.47475 1.18698Z" fill="#FFBF00"/>
</svg>
