<svg width="25" height="25" viewBox="0 0 32 32" fill="none" xmlns="http://www.w3.org/2000/svg">
<path d="M13.7519 2.09679C14.0598 1.75293 14.4368 1.47787 14.8581 1.28955C15.2795 1.10124 15.7359 1.00391 16.1974 1.00391C16.659 1.00391 17.1154 1.10124 17.5367 1.28955C17.9581 1.47787 18.3351 1.75293 18.6429 2.09679L19.7918 3.38027C20.1202 3.74709 20.5269 4.03535 20.9817 4.22371C21.4366 4.41207 21.928 4.49571 22.4195 4.46843L24.1429 4.37324C24.6038 4.34783 25.0649 4.41993 25.4961 4.58484C25.9273 4.74974 26.3189 5.00374 26.6452 5.33025C26.9716 5.65676 27.2254 6.04844 27.3901 6.4797C27.5548 6.91097 27.6267 7.37212 27.601 7.83306L27.5059 9.55476C27.4788 10.046 27.5626 10.5371 27.7509 10.9917C27.9393 11.4462 28.2274 11.8526 28.594 12.1808L29.8775 13.3297C30.2216 13.6376 30.4969 14.0146 30.6854 14.4362C30.8739 14.8577 30.9713 15.3143 30.9713 15.776C30.9713 16.2378 30.8739 16.6943 30.6854 17.1159C30.4969 17.5374 30.2216 17.9145 29.8775 18.2224L28.594 19.3712C28.2272 19.6996 27.9389 20.1063 27.7506 20.5611C27.5622 21.016 27.4786 21.5074 27.5059 21.9989L27.601 23.7223C27.6265 24.1832 27.5544 24.6443 27.3894 25.0755C27.2245 25.5067 26.9705 25.8983 26.644 26.2246C26.3175 26.551 25.9258 26.8048 25.4946 26.9695C25.0633 27.1342 24.6022 27.2061 24.1412 27.1805L22.4195 27.0853C21.9282 27.0582 21.4372 27.142 20.9826 27.3303C20.5281 27.5187 20.1217 27.8068 19.7935 28.1734L18.6446 29.4569C18.3367 29.801 17.9597 30.0763 17.5381 30.2648C17.1166 30.4533 16.66 30.5507 16.1983 30.5507C15.7365 30.5507 15.2799 30.4533 14.8584 30.2648C14.4369 30.0763 14.0598 29.801 13.7519 29.4569L12.603 28.1734C12.2747 27.8066 11.868 27.5183 11.4132 27.33C10.9583 27.1416 10.4669 27.058 9.97535 27.0853L8.25201 27.1805C7.79106 27.2059 7.32994 27.1338 6.89876 26.9689C6.46757 26.8039 6.07602 26.5499 5.74966 26.2234C5.42331 25.8969 5.16949 25.5053 5.00479 25.074C4.84009 24.6427 4.76821 24.1816 4.79383 23.7206L4.88903 21.9989C4.91606 21.5076 4.8323 21.0166 4.64394 20.562C4.45559 20.1075 4.16746 19.7011 3.80086 19.3729L2.51738 18.224C2.17326 17.9161 1.89796 17.5391 1.70948 17.1175C1.52101 16.696 1.42358 16.2394 1.42358 15.7777C1.42358 15.3159 1.52101 14.8593 1.70948 14.4378C1.89796 14.0163 2.17326 13.6392 2.51738 13.3313L3.80086 12.1824C4.16768 11.8541 4.45594 11.4474 4.64431 10.9926C4.83267 10.5377 4.91631 10.0463 4.88903 9.55476L4.79383 7.83141C4.76866 7.3706 4.84094 6.90966 5.00596 6.47867C5.17097 6.04769 5.42501 5.65634 5.75149 5.33016C6.07797 5.00399 6.46956 4.75032 6.90071 4.58572C7.33186 4.42112 7.79286 4.34927 8.25365 4.37488L9.97535 4.47008C10.4666 4.4971 10.9577 4.41334 11.4123 4.22499C11.8668 4.03663 12.2732 3.7485 12.6014 3.38191L13.7519 2.09679Z" stroke="#FFBF00" stroke-width="0.984924"/>
<path d="M12.0944 11.6719H12.1108V11.6883H12.0944V11.6719ZM20.3008 19.8783H20.3172V19.8947H20.3008V19.8783Z" stroke="#FFBF00" stroke-width="0.984924" stroke-linejoin="round"/>
<path d="M21.1214 10.8516L11.2737 20.6992" stroke="#FFBF00" stroke-width="0.984924" stroke-linecap="round" stroke-linejoin="round"/>
</svg>
